<?xml version="1.0" encoding="UTF-8" standalone="no"?>
<!DOCTYPE svg PUBLIC "-//W3C//DTD SVG 1.1//EN"
 "http://www.w3.org/Graphics/SVG/1.1/DTD/svg11.dtd">
<!-- Generated by graphviz version 2.40.1 (20161225.0304)
 -->
<!-- Title: %3 Pages: 1 -->
<svg width="279pt" height="255pt"
 viewBox="0.00 0.00 278.70 255.31" xmlns="http://www.w3.org/2000/svg" xmlns:xlink="http://www.w3.org/1999/xlink">
<g id="graph0" class="graph" transform="scale(1 1) rotate(0) translate(4 251.3135)">
<title>%3</title>
<polygon fill="#ffffff" stroke="transparent" points="-4,4 -4,-251.3135 274.6985,-251.3135 274.6985,4 -4,4"/>
<!-- 1 -->
<g id="node1" class="node">
<title>1</title>
<polygon fill="#add8e6" stroke="#000000" points="144.3492,-245.6985 123.3492,-245.6985 123.3492,-227.6985 144.3492,-227.6985 144.3492,-245.6985"/>
<text text-anchor="middle" x="133.8492" y="-234.4985" font-family="Times,serif" font-size="9.00" fill="#000000">1</text>
</g>
<!-- 1&#45;&gt;1 -->
<g id="edge5" class="edge">
<title>1&#45;&gt;1</title>
<path fill="none" stroke="#ff0000" stroke-width=".3102" d="M144.3725,-245.2785C153.1635,-248.9452 162.3492,-246.0852 162.3492,-236.6985 162.3492,-231.1251 159.1109,-227.8527 154.6396,-226.8811"/>
<polygon fill="#ff0000" stroke="#ff0000" stroke-width=".3102" points="153.8819,-223.4471 144.3725,-228.1184 154.7194,-230.3968 153.8819,-223.4471"/>
</g>
<!-- 3 -->
<g id="node3" class="node">
<title>3</title>
<polygon fill="#add8e6" stroke="#000000" points="114.3492,-137.6985 93.3492,-137.6985 93.3492,-119.6985 114.3492,-119.6985 114.3492,-137.6985"/>
<text text-anchor="middle" x="103.8492" y="-126.4985" font-family="Times,serif" font-size="9.00" fill="#000000">3</text>
</g>
<!-- 1&#45;&gt;3 -->
<g id="edge18" class="edge">
<title>1&#45;&gt;3</title>
<path fill="none" stroke="#00ff00" stroke-width=".4013" d="M127.3117,-227.4905C119.2655,-209.9556 108.1197,-171.4346 103.8976,-148.0111"/>
<polygon fill="#00ff00" stroke="#00ff00" stroke-width=".4013" points="107.3275,-147.2755 102.425,-137.8832 100.4003,-148.2828 107.3275,-147.2755"/>
</g>
<!-- 4 -->
<g id="node4" class="node">
<title>4</title>
<polygon fill="#add8e6" stroke="#000000" points="167.3492,-191.6985 146.3492,-191.6985 146.3492,-173.6985 167.3492,-173.6985 167.3492,-191.6985"/>
<text text-anchor="middle" x="156.8492" y="-180.4985" font-family="Times,serif" font-size="9.00" fill="#000000">4</text>
</g>
<!-- 1&#45;&gt;4 -->
<g id="edge23" class="edge">
<title>1&#45;&gt;4</title>
<path fill="none" stroke="#00ff00" stroke-width=".319" stroke-dasharray="1,5" d="M137.8555,-227.2924C140.8897,-220.1686 145.1567,-210.1506 148.8778,-201.414"/>
<polygon fill="#00ff00" stroke="#00ff00" stroke-width=".319" points="152.1903,-202.5686 152.8889,-191.9968 145.7501,-199.8255 152.1903,-202.5686"/>
</g>
<!-- 0 -->
<g id="node5" class="node">
<title>0</title>
<ellipse fill="#add8e6" stroke="#000000" cx="14.8492" cy="-14.8492" rx="14.7" ry="14.7"/>
<text text-anchor="middle" x="14.8492" y="-12.6492" font-family="Times,serif" font-size="9.00" fill="#000000">0</text>
</g>
<!-- 1&#45;&gt;0 -->
<g id="edge13" class="edge">
<title>1&#45;&gt;0</title>
<path fill="none" stroke="#00ff00" stroke-width=".4309" d="M125.9062,-227.3856C106.8287,-204.5237 58.1369,-143.1555 32.8492,-83.6985 26.8208,-69.5243 22.395,-52.8269 19.4407,-39.4255"/>
<polygon fill="#00ff00" stroke="#00ff00" stroke-width=".4309" points="22.8396,-38.5782 17.3843,-29.4957 15.985,-39.9978 22.8396,-38.5782"/>
</g>
<!-- 5 -->
<g id="node6" class="node">
<title>5</title>
<ellipse fill="#add8e6" stroke="#000000" cx="255.8492" cy="-14.8492" rx="14.7" ry="14.7"/>
<text text-anchor="middle" x="255.8492" y="-12.6492" font-family="Times,serif" font-size="9.00" fill="#000000">5</text>
</g>
<!-- 1&#45;&gt;5 -->
<g id="edge9" class="edge">
<title>1&#45;&gt;5</title>
<path fill="none" stroke="#00ff00" stroke-width="1.0608" d="M144.5239,-233.3422C161.1824,-227.5564 193.2697,-214.1178 210.8492,-191.6985 246.1045,-146.7372 254.0197,-77.3576 255.619,-40.2767"/>
<polygon fill="#00ff00" stroke="#00ff00" stroke-width="1.0608" points="259.1298,-39.9705 255.9358,-29.8686 252.1331,-39.7574 259.1298,-39.9705"/>
</g>
<!-- 2 -->
<g id="node2" class="node">
<title>2</title>
<polygon fill="#add8e6" stroke="#000000" points="152.3492,-83.6985 131.3492,-83.6985 131.3492,-65.6985 152.3492,-65.6985 152.3492,-83.6985"/>
<text text-anchor="middle" x="141.8492" y="-72.4985" font-family="Times,serif" font-size="9.00" fill="#000000">2</text>
</g>
<!-- 2&#45;&gt;1 -->
<g id="edge14" class="edge">
<title>2&#45;&gt;1</title>
<path fill="none" stroke="#ff0000" stroke-width=".58" d="M151.6783,-83.9322C171.6613,-103.8709 213.532,-152.3329 193.8492,-191.6985 185.6023,-208.1924 168.1168,-220.2092 154.1388,-227.6545"/>
<polygon fill="#ff0000" stroke="#ff0000" stroke-width=".58" points="152.191,-224.712 144.7627,-232.2665 155.2808,-230.9932 152.191,-224.712"/>
</g>
<!-- 2&#45;&gt;2 -->
<g id="edge4" class="edge">
<title>2&#45;&gt;2</title>
<path fill="none" stroke="#ff0000" stroke-width=".3076" d="M152.3725,-83.2785C161.1635,-86.9452 170.3492,-84.0852 170.3492,-74.6985 170.3492,-69.1251 167.1109,-65.8527 162.6396,-64.8811"/>
<polygon fill="#ff0000" stroke="#ff0000" stroke-width=".3076" points="161.8819,-61.4471 152.3725,-66.1184 162.7194,-68.3968 161.8819,-61.4471"/>
</g>
<!-- 2&#45;&gt;3 -->
<g id="edge21" class="edge">
<title>2&#45;&gt;3</title>
<path fill="none" stroke="#ff0000" stroke-width=".5871" d="M140.658,-83.7825C136.6848,-91.785 128.6871,-103.6144 120.9899,-113.1246"/>
<polygon fill="#ff0000" stroke="#ff0000" stroke-width=".5871" points="118.306,-110.8774 114.4117,-120.7306 123.6005,-115.4565 118.306,-110.8774"/>
</g>
<!-- 2&#45;&gt;0 -->
<g id="edge3" class="edge">
<title>2&#45;&gt;0</title>
<path fill="none" stroke="#ff0000" stroke-width=".204" d="M131.0213,-69.5958C110.3997,-59.8778 65.0955,-38.528 37.5519,-25.548"/>
<polygon fill="#ff0000" stroke="#ff0000" stroke-width=".204" points="38.8244,-22.2785 28.2865,-21.1816 35.8403,-28.6106 38.8244,-22.2785"/>
</g>
<!-- 2&#45;&gt;5 -->
<g id="edge16" class="edge">
<title>2&#45;&gt;5</title>
<path fill="none" stroke="#ff0000" stroke-width=".1799" d="M152.3698,-69.1753C170.7636,-59.5186 209.1383,-39.3722 233.6345,-26.5118"/>
<polygon fill="#ff0000" stroke="#ff0000" stroke-width=".1799" points="235.3498,-29.5644 242.5769,-21.8172 232.0959,-23.3666 235.3498,-29.5644"/>
</g>
<!-- 6 -->
<g id="node7" class="node">
<title>6</title>
<ellipse fill="#add8e6" stroke="#000000" cx="76.8492" cy="-14.8492" rx="14.7" ry="14.7"/>
<text text-anchor="middle" x="76.8492" y="-12.6492" font-family="Times,serif" font-size="9.00" fill="#000000">6</text>
</g>
<!-- 2&#45;&gt;6 -->
<g id="edge25" class="edge">
<title>2&#45;&gt;6</title>
<path fill="none" stroke="#ff0000" stroke-width=".7738" d="M131.9771,-65.6087C122.397,-56.7877 107.6094,-43.1719 95.7606,-32.262"/>
<polygon fill="#ff0000" stroke="#ff0000" stroke-width=".7738" points="97.8546,-29.4324 88.1273,-25.2336 93.1131,-34.582 97.8546,-29.4324"/>
</g>
<!-- 7 -->
<g id="node8" class="node">
<title>7</title>
<ellipse fill="#add8e6" stroke="#000000" cx="141.8492" cy="-14.8492" rx="14.7" ry="14.7"/>
<text text-anchor="middle" x="141.8492" y="-12.6492" font-family="Times,serif" font-size="9.00" fill="#000000">7</text>
</g>
<!-- 2&#45;&gt;7 -->
<g id="edge11" class="edge">
<title>2&#45;&gt;7</title>
<path fill="none" stroke="#ff0000" stroke-width=".9483" d="M141.8492,-65.6087C141.8492,-58.8397 141.8492,-49.2471 141.8492,-40.2205"/>
<polygon fill="#ff0000" stroke="#ff0000" stroke-width=".9483" points="145.3493,-40.0872 141.8492,-30.0872 138.3493,-40.0872 145.3493,-40.0872"/>
</g>
<!-- 3&#45;&gt;1 -->
<g id="edge6" class="edge">
<title>3&#45;&gt;1</title>
<path fill="none" stroke="#00ff00" stroke-width=".3279" d="M110.3761,-137.8832C118.4196,-155.3995 129.567,-193.9178 133.7953,-217.3547"/>
<polygon fill="#00ff00" stroke="#00ff00" stroke-width=".3279" points="130.3667,-218.0992 135.2713,-227.4905 137.2937,-217.0905 130.3667,-218.0992"/>
</g>
<!-- 3&#45;&gt;2 -->
<g id="edge22" class="edge">
<title>3&#45;&gt;2</title>
<path fill="none" stroke="#00ff00" stroke-width=".4287" d="M105.2015,-119.2924C109.1617,-111.4264 116.8597,-100.0317 124.3397,-90.7297"/>
<polygon fill="#00ff00" stroke="#00ff00" stroke-width=".4287" points="127.1729,-92.8028 131.0343,-82.9366 121.8631,-88.2414 127.1729,-92.8028"/>
</g>
<!-- 3&#45;&gt;3 -->
<g id="edge10" class="edge">
<title>3&#45;&gt;3</title>
<path fill="none" stroke="#00ff00" stroke-width=".586" d="M114.3725,-137.2785C123.1635,-140.9452 132.3492,-138.0852 132.3492,-128.6985 132.3492,-123.1251 129.1109,-119.8527 124.6396,-118.8811"/>
<polygon fill="#00ff00" stroke="#00ff00" stroke-width=".586" points="123.8819,-115.4471 114.3725,-120.1184 124.7194,-122.3968 123.8819,-115.4471"/>
</g>
<!-- 3&#45;&gt;0 -->
<g id="edge20" class="edge">
<title>3&#45;&gt;0</title>
<path fill="none" stroke="#00ff00" stroke-width=".2709" d="M96.566,-119.3817C82.157,-100.9496 49.732,-59.4714 30.338,-34.6625"/>
<polygon fill="#00ff00" stroke="#00ff00" stroke-width=".2709" points="32.9887,-32.3704 24.0724,-26.6476 27.4738,-36.6816 32.9887,-32.3704"/>
</g>
<!-- 3&#45;&gt;5 -->
<g id="edge12" class="edge">
<title>3&#45;&gt;5</title>
<path fill="none" stroke="#ff0000" stroke-width=".3854" stroke-dasharray="1,5" d="M114.4339,-123.1767C129.3296,-115.2242 157.089,-99.7313 178.8492,-83.6985 200.3639,-67.8466 222.923,-47.1195 238.0199,-32.5648"/>
<polygon fill="#ff0000" stroke="#ff0000" stroke-width=".3854" points="240.4725,-35.0617 245.1894,-25.5747 235.5859,-30.0496 240.4725,-35.0617"/>
</g>
<!-- 3&#45;&gt;6 -->
<g id="edge1" class="edge">
<title>3&#45;&gt;6</title>
<path fill="none" stroke="#ff0000" stroke-width=".5631" d="M100.3371,-119.5103C97.0002,-110.4991 92.0325,-96.3146 88.8492,-83.6985 85.2316,-69.3605 82.3387,-53.07 80.3004,-39.9356"/>
<polygon fill="#ff0000" stroke="#ff0000" stroke-width=".5631" points="83.7203,-39.1362 78.7922,-29.7573 76.7959,-40.1624 83.7203,-39.1362"/>
</g>
<!-- 3&#45;&gt;7 -->
<g id="edge7" class="edge">
<title>3&#45;&gt;7</title>
<path fill="none" stroke="#ff0000" stroke-width=".3406" d="M106.1428,-119.6421C109.328,-107.3274 115.4278,-84.661 121.8492,-65.6985 124.9547,-56.5281 128.7629,-46.5875 132.2199,-37.9484"/>
<polygon fill="#ff0000" stroke="#ff0000" stroke-width=".3406" points="135.5257,-39.1106 136.0537,-28.5289 129.0421,-36.4717 135.5257,-39.1106"/>
</g>
<!-- 4&#45;&gt;2 -->
<g id="edge17" class="edge">
<title>4&#45;&gt;2</title>
<path fill="none" stroke="#ff0000" stroke-width=".603" d="M155.5704,-173.4905C153.1349,-155.9556 147.7848,-117.4346 144.5316,-94.0111"/>
<polygon fill="#ff0000" stroke="#ff0000" stroke-width=".603" points="147.9674,-93.3066 143.1249,-83.8832 141.0339,-94.2696 147.9674,-93.3066"/>
</g>
<!-- 4&#45;&gt;3 -->
<g id="edge8" class="edge">
<title>4&#45;&gt;3</title>
<path fill="none" stroke="#00ff00" stroke-width=".1403" stroke-dasharray="1,5" d="M147.6173,-173.2924C140.0175,-165.5492 129.0615,-154.3865 120.0125,-145.1667"/>
<polygon fill="#00ff00" stroke="#00ff00" stroke-width=".1403" points="122.478,-142.682 112.9753,-137.9968 117.4821,-147.5853 122.478,-142.682"/>
</g>
<!-- 4&#45;&gt;4 -->
<g id="edge15" class="edge">
<title>4&#45;&gt;4</title>
<path fill="none" stroke="#ff0000" stroke-width=".3519" d="M167.3725,-191.2785C176.1635,-194.9452 185.3492,-192.0852 185.3492,-182.6985 185.3492,-177.1251 182.1109,-173.8527 177.6396,-172.8811"/>
<polygon fill="#ff0000" stroke="#ff0000" stroke-width=".3519" points="176.8819,-169.4471 167.3725,-174.1184 177.7194,-176.3968 176.8819,-169.4471"/>
</g>
<!-- 4&#45;&gt;0 -->
<g id="edge19" class="edge">
<title>4&#45;&gt;0</title>
<path fill="none" stroke="#00ff00" stroke-width=".2359" d="M146.2992,-178.2432C131.0132,-171.3716 102.5,-156.942 83.8492,-137.6985 55.4436,-108.3901 34.7545,-65.1001 23.7899,-38.504"/>
<polygon fill="#00ff00" stroke="#00ff00" stroke-width=".2359" points="26.9007,-36.8562 19.9422,-28.8669 20.3997,-39.4518 26.9007,-36.8562"/>
</g>
<!-- 4&#45;&gt;5 -->
<g id="edge2" class="edge">
<title>4&#45;&gt;5</title>
<path fill="none" stroke="#ff0000" stroke-width=".2074" stroke-dasharray="1,5" d="M165.1559,-173.462C172.857,-164.646 184.3705,-150.8022 192.8492,-137.6985 214.3451,-104.477 234.3158,-63.0151 245.7893,-37.756"/>
<polygon fill="#ff0000" stroke="#ff0000" stroke-width=".2074" points="248.9922,-39.1673 249.8928,-28.6108 242.6056,-36.3015 248.9922,-39.1673"/>
</g>
<!-- 4&#45;&gt;7 -->
<g id="edge24" class="edge">
<title>4&#45;&gt;7</title>
<path fill="none" stroke="#00ff00" stroke-width=".1379" d="M161.528,-173.6975C171.2216,-153.8146 191.5732,-104.8111 178.8492,-65.6985 174.9187,-53.6163 166.9156,-42.0109 159.3549,-32.9456"/>
<polygon fill="#00ff00" stroke="#00ff00" stroke-width=".1379" points="161.916,-30.5584 152.6653,-25.3936 156.6761,-35.1999 161.916,-30.5584"/>
</g>
</g>
</svg>
