<?xml version="1.0" encoding="UTF-8" standalone="no"?>
<!DOCTYPE svg PUBLIC "-//W3C//DTD SVG 1.1//EN"
 "http://www.w3.org/Graphics/SVG/1.1/DTD/svg11.dtd">
<!-- Generated by graphviz version 2.40.1 (20161225.0304)
 -->
<!-- Title: %3 Pages: 1 -->
<svg width="323pt" height="358pt"
 viewBox="0.00 0.00 323.44 358.17" xmlns="http://www.w3.org/2000/svg" xmlns:xlink="http://www.w3.org/1999/xlink">
<g id="graph0" class="graph" transform="scale(1 1) rotate(0) translate(4 354.1664)">
<title>%3</title>
<polygon fill="#ffffff" stroke="transparent" points="-4,4 -4,-354.1664 319.4414,-354.1664 319.4414,4 -4,4"/>
<!-- 1 -->
<g id="node1" class="node">
<title>1</title>
<polygon fill="#add8e6" stroke="#000000" points="162.2425,-348.5513 141.2425,-348.5513 141.2425,-330.5513 162.2425,-330.5513 162.2425,-348.5513"/>
<text text-anchor="middle" x="151.7425" y="-337.3513" font-family="Times,serif" font-size="9.00" fill="#000000">1</text>
</g>
<!-- 1&#45;&gt;1 -->
<g id="edge17" class="edge">
<title>1&#45;&gt;1</title>
<path fill="none" stroke="#ff0000" stroke-width=".3615" d="M162.2658,-348.1313C171.0568,-351.798 180.2425,-348.938 180.2425,-339.5513 180.2425,-333.9779 177.0042,-330.7055 172.5329,-329.734"/>
<polygon fill="#ff0000" stroke="#ff0000" stroke-width=".3615" points="171.7752,-326.2999 162.2658,-330.9713 172.6127,-333.2496 171.7752,-326.2999"/>
</g>
<!-- 3 -->
<g id="node3" class="node">
<title>3</title>
<polygon fill="#add8e6" stroke="#000000" points="162.2425,-294.5513 141.2425,-294.5513 141.2425,-276.5513 162.2425,-276.5513 162.2425,-294.5513"/>
<text text-anchor="middle" x="151.7425" y="-283.3513" font-family="Times,serif" font-size="9.00" fill="#000000">3</text>
</g>
<!-- 1&#45;&gt;3 -->
<g id="edge24" class="edge">
<title>1&#45;&gt;3</title>
<path fill="none" stroke="#ff0000" stroke-width=".2941" d="M146.4757,-330.1452C145.0802,-323.1763 144.6695,-313.4376 145.2435,-304.8384"/>
<polygon fill="#ff0000" stroke="#ff0000" stroke-width=".2941" points="148.7246,-305.2077 146.4974,-294.8496 141.7791,-304.3358 148.7246,-305.2077"/>
</g>
<!-- 4 -->
<g id="node4" class="node">
<title>4</title>
<polygon fill="#add8e6" stroke="#000000" points="106.2425,-180.7021 85.2425,-180.7021 85.2425,-162.7021 106.2425,-162.7021 106.2425,-180.7021"/>
<text text-anchor="middle" x="95.7425" y="-169.5021" font-family="Times,serif" font-size="9.00" fill="#000000">4</text>
</g>
<!-- 1&#45;&gt;4 -->
<g id="edge6" class="edge">
<title>1&#45;&gt;4</title>
<path fill="none" stroke="#00ff00" stroke-width=".1153" d="M141.104,-331.0327C134.7729,-322.0626 128.402,-307.4751 123.7425,-294.5513 110.699,-258.3728 98.4195,-215.1145 94.5675,-190.7827"/>
<polygon fill="#00ff00" stroke="#00ff00" stroke-width=".1153" points="98.0327,-190.279 93.402,-180.7497 91.0794,-191.0868 98.0327,-190.279"/>
</g>
<!-- 0 -->
<g id="node5" class="node">
<title>0</title>
<ellipse fill="#add8e6" stroke="#000000" cx="183.7425" cy="-99.6396" rx="14.7" ry="14.7"/>
<text text-anchor="middle" x="183.7425" y="-97.4396" font-family="Times,serif" font-size="9.00" fill="#000000">0</text>
</g>
<!-- 1&#45;&gt;0 -->
<g id="edge15" class="edge">
<title>1&#45;&gt;0</title>
<path fill="none" stroke="#00ff00" stroke-width=".3988" d="M162.3701,-332.9782C191.2169,-314.3874 270.5075,-258.1038 295.7425,-186.5513 300.1327,-174.1034 303.0322,-167.8566 295.7425,-156.8528 273.0849,-122.6506 246.0721,-141.7091 210.7425,-120.8528 208.1919,-119.3471 205.6142,-117.6267 203.1161,-115.8317"/>
<polygon fill="#00ff00" stroke="#00ff00" stroke-width=".3988" points="205.1424,-112.9746 195.0842,-109.6452 200.8709,-118.5202 205.1424,-112.9746"/>
</g>
<!-- 5 -->
<g id="node6" class="node">
<title>5</title>
<ellipse fill="#add8e6" stroke="#000000" cx="234.7425" cy="-99.6396" rx="14.7" ry="14.7"/>
<text text-anchor="middle" x="234.7425" y="-97.4396" font-family="Times,serif" font-size="9.00" fill="#000000">5</text>
</g>
<!-- 1&#45;&gt;5 -->
<g id="edge10" class="edge">
<title>1&#45;&gt;5</title>
<path fill="none" stroke="#ff0000" stroke-width=".4101" d="M162.3736,-335.3472C179.1832,-328.3996 212.479,-313.3979 236.7425,-294.5513 282.8945,-258.7029 298.7408,-243.5256 311.7425,-186.5513 314.6792,-173.6828 317.6719,-168.6454 311.7425,-156.8528 300.5813,-134.6547 276.2785,-118.8987 257.9416,-109.6151"/>
<polygon fill="#ff0000" stroke="#ff0000" stroke-width=".4101" points="259.2774,-106.3748 248.7439,-105.2371 256.2689,-112.6953 259.2774,-106.3748"/>
</g>
<!-- 6 -->
<g id="node7" class="node">
<title>6</title>
<ellipse fill="#add8e6" stroke="#000000" cx="271.7425" cy="-171.7021" rx="14.7" ry="14.7"/>
<text text-anchor="middle" x="271.7425" y="-169.5021" font-family="Times,serif" font-size="9.00" fill="#000000">6</text>
</g>
<!-- 1&#45;&gt;6 -->
<g id="edge29" class="edge">
<title>1&#45;&gt;6</title>
<path fill="none" stroke="#ff0000" stroke-width=".1683" d="M159.8811,-330.4668C167.772,-321.5325 179.9524,-307.4033 189.7425,-294.5513 215.784,-260.3656 242.8717,-218.2903 258.4754,-193.3061"/>
<polygon fill="#ff0000" stroke="#ff0000" stroke-width=".1683" points="261.5672,-194.9616 263.8673,-184.6195 255.6197,-191.27 261.5672,-194.9616"/>
</g>
<!-- 2 -->
<g id="node2" class="node">
<title>2</title>
<polygon fill="#add8e6" stroke="#000000" points="162.2425,-240.5513 141.2425,-240.5513 141.2425,-222.5513 162.2425,-222.5513 162.2425,-240.5513"/>
<text text-anchor="middle" x="151.7425" y="-229.3513" font-family="Times,serif" font-size="9.00" fill="#000000">2</text>
</g>
<!-- 2&#45;&gt;3 -->
<g id="edge21" class="edge">
<title>2&#45;&gt;3</title>
<path fill="none" stroke="#00ff00" stroke-width=".2456" d="M156.9877,-240.8496C158.3934,-247.7898 158.8143,-257.5199 158.2504,-266.1309"/>
<polygon fill="#00ff00" stroke="#00ff00" stroke-width=".2456" points="154.7658,-265.7907 157.0094,-276.1452 161.7127,-266.6516 154.7658,-265.7907"/>
</g>
<!-- 2&#45;&gt;4 -->
<g id="edge27" class="edge">
<title>2&#45;&gt;4</title>
<path fill="none" stroke="#ff0000" stroke-width=".229" d="M141.103,-224.9177C130.7235,-216.2971 115.7613,-200.9278 105.672,-188.9152"/>
<polygon fill="#ff0000" stroke="#ff0000" stroke-width=".229" points="108.2772,-186.5675 99.3218,-180.906 102.792,-190.9164 108.2772,-186.5675"/>
</g>
<!-- 2&#45;&gt;0 -->
<g id="edge3" class="edge">
<title>2&#45;&gt;0</title>
<path fill="none" stroke="#00ff00" stroke-width=".9126" d="M153.942,-222.4845C158.7964,-202.4736 170.5672,-153.9516 177.7778,-124.2277"/>
<polygon fill="#00ff00" stroke="#00ff00" stroke-width=".9126" points="181.2506,-124.7582 180.2068,-114.2149 174.4479,-123.1079 181.2506,-124.7582"/>
</g>
<!-- 2&#45;&gt;5 -->
<g id="edge19" class="edge">
<title>2&#45;&gt;5</title>
<path fill="none" stroke="#ff0000" stroke-width=".3061" d="M157.4475,-222.4845C170.4686,-201.7901 202.6755,-150.6037 221.1453,-121.2496"/>
<polygon fill="#ff0000" stroke="#ff0000" stroke-width=".3061" points="224.2544,-122.8805 226.6176,-112.5525 218.3296,-119.1525 224.2544,-122.8805"/>
</g>
<!-- 2&#45;&gt;6 -->
<g id="edge30" class="edge">
<title>2&#45;&gt;6</title>
<path fill="none" stroke="#00ff00" stroke-width=".2227" d="M162.414,-226.3343C179.4372,-217.9985 213.7744,-201.1293 242.7425,-186.5513 244.9168,-185.4571 247.1794,-184.3113 249.4394,-183.162"/>
<polygon fill="#00ff00" stroke="#00ff00" stroke-width=".2227" points="251.1682,-186.2091 258.4804,-178.5421 247.983,-179.9757 251.1682,-186.2091"/>
</g>
<!-- 7 -->
<g id="node8" class="node">
<title>7</title>
<ellipse fill="#add8e6" stroke="#000000" cx="28.7425" cy="-99.6396" rx="14.7" ry="14.7"/>
<text text-anchor="middle" x="28.7425" y="-97.4396" font-family="Times,serif" font-size="9.00" fill="#000000">7</text>
</g>
<!-- 2&#45;&gt;7 -->
<g id="edge13" class="edge">
<title>2&#45;&gt;7</title>
<path fill="none" stroke="#ff0000" stroke-width=".3323" d="M141.2125,-227.4867C125.3402,-220.9238 95.0892,-206.6647 75.7425,-186.5513 58.1025,-168.2121 45.1246,-141.9444 37.3288,-123.0942"/>
<polygon fill="#ff0000" stroke="#ff0000" stroke-width=".3323" points="40.5618,-121.7518 33.6307,-113.7386 34.0519,-124.3251 40.5618,-121.7518"/>
</g>
<!-- 3&#45;&gt;1 -->
<g id="edge7" class="edge">
<title>3&#45;&gt;1</title>
<path fill="none" stroke="#ff0000" stroke-width=".4615" d="M156.9877,-294.8496C158.3934,-301.7898 158.8143,-311.5199 158.2504,-320.1309"/>
<polygon fill="#ff0000" stroke="#ff0000" stroke-width=".4615" points="154.7658,-319.7907 157.0094,-330.1452 161.7127,-320.6516 154.7658,-319.7907"/>
</g>
<!-- 3&#45;&gt;2 -->
<g id="edge26" class="edge">
<title>3&#45;&gt;2</title>
<path fill="none" stroke="#ff0000" stroke-width=".2728" d="M146.4757,-276.1452C145.0802,-269.1763 144.6695,-259.4376 145.2435,-250.8384"/>
<polygon fill="#ff0000" stroke="#ff0000" stroke-width=".2728" points="148.7246,-251.2077 146.4974,-240.8496 141.7791,-250.3358 148.7246,-251.2077"/>
</g>
<!-- 3&#45;&gt;3 -->
<g id="edge5" class="edge">
<title>3&#45;&gt;3</title>
<path fill="none" stroke="#00ff00" stroke-width=".1471" stroke-dasharray="1,5" d="M162.2658,-294.1313C171.0568,-297.798 180.2425,-294.938 180.2425,-285.5513 180.2425,-279.9779 177.0042,-276.7055 172.5329,-275.734"/>
<polygon fill="#00ff00" stroke="#00ff00" stroke-width=".1471" points="171.7752,-272.2999 162.2658,-276.9713 172.6127,-279.2496 171.7752,-272.2999"/>
</g>
<!-- 3&#45;&gt;0 -->
<g id="edge23" class="edge">
<title>3&#45;&gt;0</title>
<path fill="none" stroke="#ff0000" stroke-width=".3789" stroke-dasharray="1,5" d="M156.972,-276.2237C161.6847,-267.3434 168.3748,-253.4561 171.7425,-240.5513 182.0323,-201.1226 184.0238,-153.5913 184.1519,-125.036"/>
<polygon fill="#ff0000" stroke="#ff0000" stroke-width=".3789" points="187.651,-124.7197 184.1195,-114.7308 180.651,-124.7418 187.651,-124.7197"/>
</g>
<!-- 3&#45;&gt;5 -->
<g id="edge14" class="edge">
<title>3&#45;&gt;5</title>
<path fill="none" stroke="#ff0000" stroke-width=".3382" d="M162.5266,-282.2638C191.062,-272.8918 268.2359,-243.007 295.7425,-186.5513 301.5239,-174.6854 300.9883,-168.965 295.7425,-156.8528 287.7428,-138.382 270.5185,-123.138 256.4065,-113.0427"/>
<polygon fill="#ff0000" stroke="#ff0000" stroke-width=".3382" points="257.9566,-109.8662 247.7105,-107.17 254.0389,-115.6672 257.9566,-109.8662"/>
</g>
<!-- 3&#45;&gt;6 -->
<g id="edge1" class="edge">
<title>3&#45;&gt;6</title>
<path fill="none" stroke="#ff0000" stroke-width=".3189" d="M162.5587,-276.8756C173.4557,-268.0185 190.6309,-253.7367 204.7425,-240.5513 222.2648,-224.1792 241.2393,-204.4795 254.5075,-190.3546"/>
<polygon fill="#ff0000" stroke="#ff0000" stroke-width=".3189" points="257.3412,-192.4481 261.606,-182.7496 252.2239,-187.6717 257.3412,-192.4481"/>
</g>
<!-- 3&#45;&gt;7 -->
<g id="edge18" class="edge">
<title>3&#45;&gt;7</title>
<path fill="none" stroke="#ff0000" stroke-width=".5308" d="M141.164,-278.1618C120.6679,-263.2748 75.4792,-227.5727 51.7425,-186.5513 40.6855,-167.4426 34.8255,-142.9175 31.7951,-124.7948"/>
<polygon fill="#ff0000" stroke="#ff0000" stroke-width=".5308" points="35.2261,-124.0719 30.2863,-114.6991 28.303,-125.1066 35.2261,-124.0719"/>
</g>
<!-- 4&#45;&gt;1 -->
<g id="edge16" class="edge">
<title>4&#45;&gt;1</title>
<path fill="none" stroke="#00ff00" stroke-width=".2008" d="M102.8189,-180.7497C112.5492,-201.2353 126.6332,-252.6431 141.7425,-294.5513 144.8668,-303.2171 148.7606,-312.6308 151.5208,-320.5975"/>
<polygon fill="#00ff00" stroke="#00ff00" stroke-width=".2008" points="148.2142,-321.7589 154.4032,-330.3581 154.9276,-319.7763 148.2142,-321.7589"/>
</g>
<!-- 4&#45;&gt;2 -->
<g id="edge20" class="edge">
<title>4&#45;&gt;2</title>
<path fill="none" stroke="#00ff00" stroke-width=".1484" d="M106.3193,-178.2836C116.7296,-186.9178 131.7855,-202.3856 141.896,-214.4368"/>
<polygon fill="#00ff00" stroke="#00ff00" stroke-width=".1484" points="139.2964,-216.792 148.2467,-222.4615 144.7854,-212.448 139.2964,-216.792"/>
</g>
<!-- 4&#45;&gt;3 -->
<g id="edge9" class="edge">
<title>4&#45;&gt;3</title>
<path fill="none" stroke="#ff0000" stroke-width=".3487" stroke-dasharray="1,5" d="M100.2321,-180.8294C109.4274,-199.5236 130.5575,-242.4816 142.7051,-267.1779"/>
<polygon fill="#ff0000" stroke="#ff0000" stroke-width=".3487" points="139.6054,-268.8061 147.1598,-276.2345 145.8867,-265.7165 139.6054,-268.8061"/>
</g>
<!-- 4&#45;&gt;4 -->
<g id="edge8" class="edge">
<title>4&#45;&gt;4</title>
<path fill="none" stroke="#00ff00" stroke-width=".1941" d="M105.9696,-180.7823C114.8492,-184.9241 124.2425,-181.8974 124.2425,-171.7021 124.2425,-165.4893 120.7545,-161.9385 116.0201,-161.0496"/>
<polygon fill="#00ff00" stroke="#00ff00" stroke-width=".1941" points="115.3085,-157.6183 105.9696,-162.6219 116.3904,-164.5342 115.3085,-157.6183"/>
</g>
<!-- 4&#45;&gt;0 -->
<g id="edge11" class="edge">
<title>4&#45;&gt;0</title>
<path fill="none" stroke="#00ff00" stroke-width=".3359" d="M106.5331,-162.8658C120.8109,-151.1738 146.2427,-130.3479 164.0028,-115.8043"/>
<polygon fill="#00ff00" stroke="#00ff00" stroke-width=".3359" points="166.5033,-118.2805 172.0227,-109.2369 162.0683,-112.8647 166.5033,-118.2805"/>
</g>
<!-- 4&#45;&gt;5 -->
<g id="edge2" class="edge">
<title>4&#45;&gt;5</title>
<path fill="none" stroke="#ff0000" stroke-width=".5779" d="M106.3538,-167.8679C126.7493,-160.2889 172.5217,-142.2566 207.7425,-120.8528 210.2738,-119.3146 212.8396,-117.5743 215.3311,-115.7684"/>
<polygon fill="#ff0000" stroke="#ff0000" stroke-width=".5779" points="217.5797,-118.4542 223.3581,-109.5739 213.3031,-112.9125 217.5797,-118.4542"/>
</g>
<!-- 4&#45;&gt;7 -->
<g id="edge28" class="edge">
<title>4&#45;&gt;7</title>
<path fill="none" stroke="#ff0000" stroke-width=".5147" d="M87.257,-162.5753C76.9177,-151.4548 59.1927,-132.3905 45.9536,-118.1511"/>
<polygon fill="#ff0000" stroke="#ff0000" stroke-width=".5147" points="48.5079,-115.7583 39.1355,-110.8178 43.3814,-120.5247 48.5079,-115.7583"/>
</g>
<!-- 331 -->
<g id="node9" class="node">
<title>331</title>
<ellipse fill="#ffffff" stroke="#000000" cx="120.7425" cy="-99.6396" rx="21.4286" ry="21.4286"/>
<text text-anchor="middle" x="120.7425" y="-97.4396" font-family="Times,serif" font-size="9.00" fill="#000000">331</text>
</g>
<!-- 4&#45;&gt;331 -->
<g id="edge4" class="edge">
<title>4&#45;&gt;331</title>
<path fill="none" stroke="#00ff00" stroke-width=".2319" d="M98.9088,-162.5753C101.8035,-154.2314 106.2497,-141.4153 110.3762,-129.5207"/>
<polygon fill="#00ff00" stroke="#00ff00" stroke-width=".2319" points="113.7552,-130.4591 113.7262,-119.8643 107.1419,-128.1647 113.7552,-130.4591"/>
</g>
<!-- 303 -->
<g id="node10" class="node">
<title>303</title>
<ellipse fill="#ffffff" stroke="#000000" cx="71.7425" cy="-21.2132" rx="21.4286" ry="21.4286"/>
<text text-anchor="middle" x="71.7425" y="-19.0132" font-family="Times,serif" font-size="9.00" fill="#000000">303</text>
</g>
<!-- 4&#45;&gt;303 -->
<g id="edge25" class="edge">
<title>4&#45;&gt;303</title>
<path fill="none" stroke="#00ff00" stroke-width=".2731" stroke-dasharray="1,5" d="M94.2412,-162.2883C90.8002,-140.7119 82.2165,-86.889 76.702,-52.3107"/>
<polygon fill="#00ff00" stroke="#00ff00" stroke-width=".2731" points="80.1295,-51.5783 75.0982,-42.2544 73.2169,-52.6808 80.1295,-51.5783"/>
</g>
<!-- 331&#45;&gt;303 -->
<g id="edge12" class="edge">
<title>331&#45;&gt;303</title>
<path fill="none" stroke="#00ff00" stroke-width=".3363" d="M109.3778,-81.4499C103.1315,-71.4525 95.268,-58.8666 88.3461,-47.7879"/>
<polygon fill="#00ff00" stroke="#00ff00" stroke-width=".3363" points="91.3127,-45.9305 83.0457,-39.3043 85.3761,-49.6396 91.3127,-45.9305"/>
</g>
<!-- 303&#45;&gt;3 -->
<g id="edge22" class="edge">
<title>303&#45;&gt;3</title>
<path fill="none" stroke="#00ff00" stroke-width=".1171" d="M52.6909,-31.2244C36.5594,-40.8886 14.5412,-57.1739 4.7425,-78.4264 -3.1525,-95.5502 .6195,-102.4529 4.7425,-120.8528 18.2674,-181.2101 29.8126,-199.1223 75.7425,-240.5513 92.7152,-255.8607 115.6897,-268.5985 131.9221,-276.5689"/>
<polygon fill="#00ff00" stroke="#00ff00" stroke-width=".1171" points="130.5088,-279.7723 141.0439,-280.8959 133.509,-273.4478 130.5088,-279.7723"/>
</g>
</g>
</svg>
