<?xml version="1.0" encoding="UTF-8" standalone="no"?>
<!DOCTYPE svg PUBLIC "-//W3C//DTD SVG 1.1//EN"
 "http://www.w3.org/Graphics/SVG/1.1/DTD/svg11.dtd">
<!-- Generated by graphviz version 2.40.1 (20161225.0304)
 -->
<!-- Title: %3 Pages: 1 -->
<svg width="414pt" height="470pt"
 viewBox="0.00 0.00 414.34 469.50" xmlns="http://www.w3.org/2000/svg" xmlns:xlink="http://www.w3.org/1999/xlink">
<g id="graph0" class="graph" transform="scale(1 1) rotate(0) translate(4 465.5045)">
<title>%3</title>
<polygon fill="#ffffff" stroke="transparent" points="-4,4 -4,-465.5045 410.3392,-465.5045 410.3392,4 -4,4"/>
<!-- 1 -->
<g id="node1" class="node">
<title>1</title>
<polygon fill="#add8e6" stroke="#000000" points="135.8392,-405.8894 114.8392,-405.8894 114.8392,-387.8894 135.8392,-387.8894 135.8392,-405.8894"/>
<text text-anchor="middle" x="125.3392" y="-394.6894" font-family="Times,serif" font-size="9.00" fill="#000000">1</text>
</g>
<!-- 1&#45;&gt;1 -->
<g id="edge4" class="edge">
<title>1&#45;&gt;1</title>
<path fill="none" stroke="#00ff00" stroke-width=".6215" d="M135.8624,-405.4694C144.6535,-409.1361 153.8392,-406.2761 153.8392,-396.8894 153.8392,-391.316 150.6009,-388.0436 146.1296,-387.0721"/>
<polygon fill="#00ff00" stroke="#00ff00" stroke-width=".6215" points="145.3718,-383.638 135.8624,-388.3093 146.2094,-390.5877 145.3718,-383.638"/>
</g>
<!-- 4 -->
<g id="node4" class="node">
<title>4</title>
<polygon fill="#add8e6" stroke="#000000" points="203.8392,-260.5427 182.8392,-260.5427 182.8392,-242.5427 203.8392,-242.5427 203.8392,-260.5427"/>
<text text-anchor="middle" x="193.3392" y="-249.3427" font-family="Times,serif" font-size="9.00" fill="#000000">4</text>
</g>
<!-- 1&#45;&gt;4 -->
<g id="edge22" class="edge">
<title>1&#45;&gt;4</title>
<path fill="none" stroke="#00ff00" stroke-width=".1406" d="M129.5929,-387.7973C140.5645,-364.346 169.989,-301.4527 184.7073,-269.9929"/>
<polygon fill="#00ff00" stroke="#00ff00" stroke-width=".1406" points="188.0196,-271.1723 189.0871,-260.6313 181.6792,-268.2059 188.0196,-271.1723"/>
</g>
<!-- 5 -->
<g id="node6" class="node">
<title>5</title>
<ellipse fill="#add8e6" stroke="#000000" cx="280.3392" cy="-14.8492" rx="14.7" ry="14.7"/>
<text text-anchor="middle" x="280.3392" y="-12.6492" font-family="Times,serif" font-size="9.00" fill="#000000">5</text>
</g>
<!-- 1&#45;&gt;5 -->
<g id="edge2" class="edge">
<title>1&#45;&gt;5</title>
<path fill="none" stroke="#ff0000" stroke-width=".4862" d="M114.5208,-395.5444C93.103,-392.2748 45.3054,-381.8449 21.3392,-351.8894 -7.0176,-316.4461 2.3392,-296.9336 2.3392,-251.5427 2.3392,-251.5427 2.3392,-251.5427 2.3392,-175.9447 2.3392,-59.6963 186.5664,-25.9574 255.0782,-17.4296"/>
<polygon fill="#ff0000" stroke="#ff0000" stroke-width=".4862" points="255.8641,-20.8619 265.3927,-16.2299 255.0553,-13.9088 255.8641,-20.8619"/>
</g>
<!-- 6 -->
<g id="node7" class="node">
<title>6</title>
<ellipse fill="#add8e6" stroke="#000000" cx="113.3392" cy="-327.1407" rx="14.7" ry="14.7"/>
<text text-anchor="middle" x="113.3392" y="-324.9407" font-family="Times,serif" font-size="9.00" fill="#000000">6</text>
</g>
<!-- 1&#45;&gt;6 -->
<g id="edge25" class="edge">
<title>1&#45;&gt;6</title>
<path fill="none" stroke="#00ff00" stroke-width=".2636" stroke-dasharray="1,5" d="M123.7704,-387.771C122.202,-378.6548 119.7209,-364.2336 117.5719,-351.7428"/>
<polygon fill="#00ff00" stroke="#00ff00" stroke-width=".2636" points="121.0171,-351.125 115.8722,-341.8633 114.1185,-352.312 121.0171,-351.125"/>
</g>
<!-- 1184 -->
<g id="node9" class="node">
<title>1184</title>
<ellipse fill="#ffffff" stroke="#000000" cx="55.3392" cy="-327.1407" rx="25" ry="25"/>
<text text-anchor="middle" x="55.3392" y="-324.9407" font-family="Times,serif" font-size="9.00" fill="#000000">1184</text>
</g>
<!-- 1&#45;&gt;1184 -->
<g id="edge15" class="edge">
<title>1&#45;&gt;1184</title>
<path fill="none" stroke="#00ff00" stroke-width=".3596" d="M116.1879,-387.771C107.08,-378.6958 92.6957,-364.3631 80.199,-351.9113"/>
<polygon fill="#00ff00" stroke="#00ff00" stroke-width=".3596" points="82.6677,-349.4302 73.1135,-344.8511 77.7268,-354.3888 82.6677,-349.4302"/>
</g>
<!-- 1777 -->
<g id="node11" class="node">
<title>1777</title>
<ellipse fill="#ffffff" stroke="#000000" cx="247.3392" cy="-90.4472" rx="25" ry="25"/>
<text text-anchor="middle" x="247.3392" y="-88.2472" font-family="Times,serif" font-size="9.00" fill="#000000">1777</text>
</g>
<!-- 1&#45;&gt;1777 -->
<g id="edge20" class="edge">
<title>1&#45;&gt;1777</title>
<path fill="none" stroke="#ff0000" stroke-width=".1413" d="M136.1239,-388.5085C146.4166,-380.0959 161.8649,-366.3417 172.3392,-351.8894 222.997,-281.9922 239.5508,-178.6 244.8755,-125.1956"/>
<polygon fill="#ff0000" stroke="#ff0000" stroke-width=".1413" points="248.3636,-125.4853 245.7975,-115.2059 241.3932,-124.8419 248.3636,-125.4853"/>
</g>
<!-- 2 -->
<g id="node2" class="node">
<title>2</title>
<polygon fill="#add8e6" stroke="#000000" points="280.8392,-459.8894 259.8392,-459.8894 259.8392,-441.8894 280.8392,-441.8894 280.8392,-459.8894"/>
<text text-anchor="middle" x="270.3392" y="-448.6894" font-family="Times,serif" font-size="9.00" fill="#000000">2</text>
</g>
<!-- 2&#45;&gt;1 -->
<g id="edge14" class="edge">
<title>2&#45;&gt;1</title>
<path fill="none" stroke="#ff0000" stroke-width=".5588" d="M259.4406,-446.8306C235.1797,-437.7955 176.4155,-415.9109 145.3527,-404.3427"/>
<polygon fill="#ff0000" stroke="#ff0000" stroke-width=".5588" points="146.5629,-401.0586 135.9702,-400.8485 144.1199,-407.6185 146.5629,-401.0586"/>
</g>
<!-- 2&#45;&gt;2 -->
<g id="edge3" class="edge">
<title>2&#45;&gt;2</title>
<path fill="none" stroke="#00ff00" stroke-width=".1416" stroke-dasharray="1,5" d="M280.8624,-459.4694C289.6535,-463.1361 298.8392,-460.2761 298.8392,-450.8894 298.8392,-445.316 295.6009,-442.0436 291.1296,-441.0721"/>
<polygon fill="#00ff00" stroke="#00ff00" stroke-width=".1416" points="290.3718,-437.638 280.8624,-442.3093 291.2094,-444.5877 290.3718,-437.638"/>
</g>
<!-- 3 -->
<g id="node3" class="node">
<title>3</title>
<polygon fill="#add8e6" stroke="#000000" points="319.8392,-405.8894 298.8392,-405.8894 298.8392,-387.8894 319.8392,-387.8894 319.8392,-405.8894"/>
<text text-anchor="middle" x="309.3392" y="-394.6894" font-family="Times,serif" font-size="9.00" fill="#000000">3</text>
</g>
<!-- 2&#45;&gt;3 -->
<g id="edge17" class="edge">
<title>2&#45;&gt;3</title>
<path fill="none" stroke="#00ff00" stroke-width=".1492" d="M277.1325,-441.4833C282.5011,-434.0498 290.1458,-423.4649 296.64,-414.473"/>
<polygon fill="#00ff00" stroke="#00ff00" stroke-width=".1492" points="299.6062,-416.3437 302.6238,-406.1877 293.9314,-412.2453 299.6062,-416.3437"/>
</g>
<!-- 2&#45;&gt;4 -->
<g id="edge21" class="edge">
<title>2&#45;&gt;4</title>
<path fill="none" stroke="#00ff00" stroke-width=".3539" d="M266.8306,-441.8059C255.0303,-411.2559 216.6186,-311.811 200.5301,-270.1594"/>
<polygon fill="#00ff00" stroke="#00ff00" stroke-width=".3539" points="203.7366,-268.7467 196.8684,-260.6796 197.2068,-271.269 203.7366,-268.7467"/>
</g>
<!-- 2&#45;&gt;5 -->
<g id="edge8" class="edge">
<title>2&#45;&gt;5</title>
<path fill="none" stroke="#ff0000" stroke-width=".506" d="M281.0109,-447.1767C313.0716,-435.27 406.3392,-394.8166 406.3392,-327.1407 406.3392,-327.1407 406.3392,-327.1407 406.3392,-175.9447 406.3392,-123.6677 398.771,-105.888 365.3392,-65.6985 348.933,-45.976 322.7815,-31.9715 303.8149,-23.7186"/>
<polygon fill="#ff0000" stroke="#ff0000" stroke-width=".506" points="304.9622,-20.4058 294.3832,-19.8264 302.2919,-26.8764 304.9622,-20.4058"/>
</g>
<!-- 7 -->
<g id="node8" class="node">
<title>7</title>
<ellipse fill="#add8e6" stroke="#000000" cx="275.3392" cy="-175.9447" rx="14.7" ry="14.7"/>
<text text-anchor="middle" x="275.3392" y="-173.7447" font-family="Times,serif" font-size="9.00" fill="#000000">7</text>
</g>
<!-- 2&#45;&gt;7 -->
<g id="edge11" class="edge">
<title>2&#45;&gt;7</title>
<path fill="none" stroke="#00ff00" stroke-width=".2862" d="M270.5056,-441.7415C271.1901,-404.1009 273.8034,-260.3952 274.8758,-201.4255"/>
<polygon fill="#00ff00" stroke="#00ff00" stroke-width=".2862" points="278.3805,-201.1929 275.063,-191.1309 271.3817,-201.0655 278.3805,-201.1929"/>
</g>
<!-- 1683 -->
<g id="node13" class="node">
<title>1683</title>
<ellipse fill="#ffffff" stroke="#000000" cx="333.3392" cy="-175.9447" rx="25" ry="25"/>
<text text-anchor="middle" x="333.3392" y="-173.7447" font-family="Times,serif" font-size="9.00" fill="#000000">1683</text>
</g>
<!-- 3&#45;&gt;1683 -->
<g id="edge16" class="edge">
<title>3&#45;&gt;1683</title>
<path fill="none" stroke="#00ff00" stroke-width=".4504" d="M310.3399,-387.677C313.5768,-357.8783 323.8801,-263.0256 329.5346,-210.9697"/>
<polygon fill="#00ff00" stroke="#00ff00" stroke-width=".4504" points="333.0329,-211.1749 330.6333,-200.8554 326.0738,-210.4189 333.0329,-211.1749"/>
</g>
<!-- 119 -->
<g id="node14" class="node">
<title>119</title>
<ellipse fill="#ffffff" stroke="#000000" cx="357.3392" cy="-327.1407" rx="21.4286" ry="21.4286"/>
<text text-anchor="middle" x="357.3392" y="-324.9407" font-family="Times,serif" font-size="9.00" fill="#000000">119</text>
</g>
<!-- 3&#45;&gt;119 -->
<g id="edge6" class="edge">
<title>3&#45;&gt;119</title>
<path fill="none" stroke="#ff0000" stroke-width=".4081" d="M315.6144,-387.771C321.6263,-379.035 330.9909,-365.4274 339.3263,-353.3152"/>
<polygon fill="#ff0000" stroke="#ff0000" stroke-width=".4081" points="342.3652,-355.0731 345.1511,-344.8511 336.5988,-351.1047 342.3652,-355.0731"/>
</g>
<!-- 4&#45;&gt;5 -->
<g id="edge1" class="edge">
<title>4&#45;&gt;5</title>
<path fill="none" stroke="#00ff00" stroke-width=".3494" d="M191.9088,-242.2677C187.988,-213.737 179.4907,-125.5914 213.3392,-65.6985 223.3944,-47.9065 242.4798,-34.3705 257.7167,-25.7547"/>
<polygon fill="#00ff00" stroke="#00ff00" stroke-width=".3494" points="259.4079,-28.8195 266.5914,-21.0319 256.1194,-22.6401 259.4079,-28.8195"/>
</g>
<!-- 4&#45;&gt;7 -->
<g id="edge23" class="edge">
<title>4&#45;&gt;7</title>
<path fill="none" stroke="#00ff00" stroke-width=".5792" d="M203.394,-242.2729C216.6984,-230.0073 240.3961,-208.1596 256.9454,-192.9025"/>
<polygon fill="#00ff00" stroke="#00ff00" stroke-width=".5792" points="259.4386,-195.3644 264.4185,-186.0128 254.6938,-190.2178 259.4386,-195.3644"/>
</g>
<!-- 1459 -->
<g id="node12" class="node">
<title>1459</title>
<ellipse fill="#ffffff" stroke="#000000" cx="141.3392" cy="-175.9447" rx="25" ry="25"/>
<text text-anchor="middle" x="141.3392" y="-173.7447" font-family="Times,serif" font-size="9.00" fill="#000000">1459</text>
</g>
<!-- 4&#45;&gt;1459 -->
<g id="edge12" class="edge">
<title>4&#45;&gt;1459</title>
<path fill="none" stroke="#00ff00" stroke-width=".4194" d="M186.963,-242.2729C180.5559,-232.9582 170.3476,-218.1174 161.2103,-204.8335"/>
<polygon fill="#00ff00" stroke="#00ff00" stroke-width=".4194" points="163.9621,-202.6581 155.4112,-196.4026 158.1948,-206.6252 163.9621,-202.6581"/>
</g>
<!-- 4&#45;&gt;1683 -->
<g id="edge24" class="edge">
<title>4&#45;&gt;1683</title>
<path fill="none" stroke="#ff0000" stroke-width=".2796" d="M203.8962,-247.238C223.336,-239.1474 265.8669,-220.6781 299.3392,-200.6934 301.2747,-199.5379 303.2378,-198.3011 305.1938,-197.0194"/>
<polygon fill="#ff0000" stroke="#ff0000" stroke-width=".2796" points="307.3604,-199.7772 313.6158,-191.2261 303.3932,-194.0099 307.3604,-199.7772"/>
</g>
<!-- 0 -->
<g id="node5" class="node">
<title>0</title>
<ellipse fill="#add8e6" stroke="#000000" cx="357.3392" cy="-251.5427" rx="14.7" ry="14.7"/>
<text text-anchor="middle" x="357.3392" y="-249.3427" font-family="Times,serif" font-size="9.00" fill="#000000">0</text>
</g>
<!-- 1184&#45;&gt;4 -->
<g id="edge9" class="edge">
<title>1184&#45;&gt;4</title>
<path fill="none" stroke="#00ff00" stroke-width=".5908" d="M75.0785,-311.8856C79.658,-308.5982 84.5857,-305.2542 89.3392,-302.3919 117.4527,-285.464 152.012,-269.4439 173.3577,-260.06"/>
<polygon fill="#00ff00" stroke="#00ff00" stroke-width=".5908" points="174.9082,-263.2026 182.6889,-256.0116 172.1221,-256.7809 174.9082,-263.2026"/>
</g>
<!-- 1922 -->
<g id="node10" class="node">
<title>1922</title>
<ellipse fill="#ffffff" stroke="#000000" cx="314.3392" cy="-90.4472" rx="25" ry="25"/>
<text text-anchor="middle" x="314.3392" y="-88.2472" font-family="Times,serif" font-size="9.00" fill="#000000">1922</text>
</g>
<!-- 1922&#45;&gt;5 -->
<g id="edge10" class="edge">
<title>1922&#45;&gt;5</title>
<path fill="none" stroke="#ff0000" stroke-width=".5424" d="M304.1381,-67.7653C299.899,-58.3398 294.9846,-47.4128 290.7261,-37.9442"/>
<polygon fill="#ff0000" stroke="#ff0000" stroke-width=".5424" points="293.8753,-36.4133 286.5815,-28.7288 287.4913,-39.2845 293.8753,-36.4133"/>
</g>
<!-- 1777&#45;&gt;5 -->
<g id="edge13" class="edge">
<title>1777&#45;&gt;5</title>
<path fill="none" stroke="#ff0000" stroke-width=".4439" d="M257.4196,-67.3546C261.4842,-58.0433 266.1644,-47.3215 270.2317,-38.0039"/>
<polygon fill="#ff0000" stroke="#ff0000" stroke-width=".4439" points="273.5534,-39.1429 274.3464,-28.5778 267.138,-36.3424 273.5534,-39.1429"/>
</g>
<!-- 1683&#45;&gt;5 -->
<g id="edge19" class="edge">
<title>1683&#45;&gt;5</title>
<path fill="none" stroke="#ff0000" stroke-width=".4642" stroke-dasharray="1,5" d="M343.7571,-153.154C352.7434,-129.9408 362.267,-93.5046 348.3392,-65.6985 338.9904,-47.034 319.1772,-33.4592 303.3373,-25.0544"/>
<polygon fill="#ff0000" stroke="#ff0000" stroke-width=".4642" points="304.632,-21.7899 294.1172,-20.49 301.5263,-28.0633 304.632,-21.7899"/>
</g>
<!-- 1683&#45;&gt;1922 -->
<g id="edge5" class="edge">
<title>1683&#45;&gt;1922</title>
<path fill="none" stroke="#ff0000" stroke-width=".6887" d="M327.9454,-151.6732C326.0801,-143.2798 323.9533,-133.7095 321.9444,-124.6695"/>
<polygon fill="#ff0000" stroke="#ff0000" stroke-width=".6887" points="325.3326,-123.7819 319.7465,-114.7794 318.4993,-125.3005 325.3326,-123.7819"/>
</g>
<!-- 1683&#45;&gt;1777 -->
<g id="edge18" class="edge">
<title>1683&#45;&gt;1777</title>
<path fill="none" stroke="#ff0000" stroke-width=".3878" d="M315.52,-158.2296C303.0664,-145.8488 286.2621,-129.1427 272.4527,-115.414"/>
<polygon fill="#ff0000" stroke="#ff0000" stroke-width=".3878" points="274.695,-112.7079 265.1356,-108.1397 269.7598,-117.6721 274.695,-112.7079"/>
</g>
<!-- 119&#45;&gt;0 -->
<g id="edge7" class="edge">
<title>119&#45;&gt;0</title>
<path fill="none" stroke="#00ff00" stroke-width=".5423" d="M357.3392,-305.6795C357.3392,-296.769 357.3392,-286.3585 357.3392,-277.0603"/>
<polygon fill="#00ff00" stroke="#00ff00" stroke-width=".5423" points="360.8393,-276.8126 357.3392,-266.8126 353.8393,-276.8127 360.8393,-276.8126"/>
</g>
</g>
</svg>
