<?xml version="1.0" encoding="UTF-8" standalone="no"?>
<!DOCTYPE svg PUBLIC "-//W3C//DTD SVG 1.1//EN"
 "http://www.w3.org/Graphics/SVG/1.1/DTD/svg11.dtd">
<!-- Generated by graphviz version 2.40.1 (20161225.0304)
 -->
<!-- Title: %3 Pages: 1 -->
<svg width="324pt" height="404pt"
 viewBox="0.00 0.00 324.24 403.81" xmlns="http://www.w3.org/2000/svg" xmlns:xlink="http://www.w3.org/1999/xlink">
<g id="graph0" class="graph" transform="scale(1 1) rotate(0) translate(4 399.806)">
<title>%3</title>
<polygon fill="#ffffff" stroke="transparent" points="-4,4 -4,-399.806 320.2434,-399.806 320.2434,4 -4,4"/>
<!-- 1 -->
<g id="node1" class="node">
<title>1</title>
<polygon fill="#add8e6" stroke="#000000" points="197.5,-394.1909 176.5,-394.1909 176.5,-376.1909 197.5,-376.1909 197.5,-394.1909"/>
<text text-anchor="middle" x="187" y="-382.9909" font-family="Times,serif" font-size="9.00" fill="#000000">1</text>
</g>
<!-- 1&#45;&gt;1 -->
<g id="edge4" class="edge">
<title>1&#45;&gt;1</title>
<path fill="none" stroke="#ff0000" stroke-width=".1983" d="M197.5232,-393.771C206.3143,-397.4376 215.5,-394.5776 215.5,-385.1909 215.5,-379.6175 212.2617,-376.3451 207.7904,-375.3736"/>
<polygon fill="#ff0000" stroke="#ff0000" stroke-width=".1983" points="207.0326,-371.9395 197.5232,-376.6109 207.8702,-378.8892 207.0326,-371.9395"/>
</g>
<!-- 4 -->
<g id="node4" class="node">
<title>4</title>
<polygon fill="#add8e6" stroke="#000000" points="197.5,-340.1909 176.5,-340.1909 176.5,-322.1909 197.5,-322.1909 197.5,-340.1909"/>
<text text-anchor="middle" x="187" y="-328.9909" font-family="Times,serif" font-size="9.00" fill="#000000">4</text>
</g>
<!-- 1&#45;&gt;4 -->
<g id="edge20" class="edge">
<title>1&#45;&gt;4</title>
<path fill="none" stroke="#00ff00" stroke-width=".2513" stroke-dasharray="1,5" d="M187,-375.7848C187,-368.8933 187,-359.2933 187,-350.765"/>
<polygon fill="#00ff00" stroke="#00ff00" stroke-width=".2513" points="190.5001,-350.4892 187,-340.4892 183.5001,-350.4892 190.5001,-350.4892"/>
</g>
<!-- 5 -->
<g id="node6" class="node">
<title>5</title>
<ellipse fill="#add8e6" stroke="#000000" cx="297" cy="-195.7437" rx="14.7" ry="14.7"/>
<text text-anchor="middle" x="297" y="-193.5437" font-family="Times,serif" font-size="9.00" fill="#000000">5</text>
</g>
<!-- 1&#45;&gt;5 -->
<g id="edge8" class="edge">
<title>1&#45;&gt;5</title>
<path fill="none" stroke="#00ff00" stroke-width=".4137" d="M197.7652,-380.7626C223.4368,-369.5166 287.8342,-337.088 311,-286.1909 320.8201,-264.6153 314.44,-237.4695 307.4065,-218.5732"/>
<polygon fill="#00ff00" stroke="#00ff00" stroke-width=".4137" points="310.6356,-217.2223 303.6411,-209.2644 304.1464,-219.8472 310.6356,-217.2223"/>
</g>
<!-- 6 -->
<g id="node7" class="node">
<title>6</title>
<ellipse fill="#add8e6" stroke="#000000" cx="287" cy="-271.3417" rx="14.7" ry="14.7"/>
<text text-anchor="middle" x="287" y="-269.1417" font-family="Times,serif" font-size="9.00" fill="#000000">6</text>
</g>
<!-- 1&#45;&gt;6 -->
<g id="edge23" class="edge">
<title>1&#45;&gt;6</title>
<path fill="none" stroke="#ff0000" stroke-width=".7283" d="M195.1834,-375.8741C211.5279,-357.2661 248.5032,-315.17 270.2168,-290.4492"/>
<polygon fill="#ff0000" stroke="#ff0000" stroke-width=".7283" points="272.974,-292.6138 276.9436,-282.7907 267.7147,-287.9943 272.974,-292.6138"/>
</g>
<!-- 2 -->
<g id="node2" class="node">
<title>2</title>
<polygon fill="#add8e6" stroke="#000000" points="101.5,-204.7437 80.5,-204.7437 80.5,-186.7437 101.5,-186.7437 101.5,-204.7437"/>
<text text-anchor="middle" x="91" y="-193.5437" font-family="Times,serif" font-size="9.00" fill="#000000">2</text>
</g>
<!-- 2&#45;&gt;1 -->
<g id="edge14" class="edge">
<title>2&#45;&gt;1</title>
<path fill="none" stroke="#ff0000" stroke-width=".1583" stroke-dasharray="1,5" d="M95.5838,-204.7894C110.4701,-234.1662 157.6552,-327.2816 177.771,-366.9784"/>
<polygon fill="#ff0000" stroke="#ff0000" stroke-width=".1583" points="174.7275,-368.7154 182.3697,-376.0535 180.9716,-365.5513 174.7275,-368.7154"/>
</g>
<!-- 2&#45;&gt;2 -->
<g id="edge3" class="edge">
<title>2&#45;&gt;2</title>
<path fill="none" stroke="#00ff00" stroke-width=".4098" d="M98.0123,-204.9813C107.6702,-213.4205 119.5,-210.3413 119.5,-195.7437 119.5,-185.7078 113.9086,-181.1162 107.2756,-181.9688"/>
<polygon fill="#00ff00" stroke="#00ff00" stroke-width=".4098" points="105.4533,-178.9641 98.0123,-186.5061 108.5325,-185.2505 105.4533,-178.9641"/>
</g>
<!-- 0 -->
<g id="node5" class="node">
<title>0</title>
<ellipse fill="#add8e6" stroke="#000000" cx="149" cy="-110.2462" rx="14.7" ry="14.7"/>
<text text-anchor="middle" x="149" y="-108.0462" font-family="Times,serif" font-size="9.00" fill="#000000">0</text>
</g>
<!-- 2&#45;&gt;0 -->
<g id="edge2" class="edge">
<title>2&#45;&gt;0</title>
<path fill="none" stroke="#00ff00" stroke-width="1.2579" d="M97.207,-186.594C106.1161,-173.4612 122.7781,-148.8997 134.8019,-131.1755"/>
<polygon fill="#00ff00" stroke="#00ff00" stroke-width="1.2579" points="137.8836,-132.8673 140.6012,-122.6269 132.0908,-128.9375 137.8836,-132.8673"/>
</g>
<!-- 7 -->
<g id="node8" class="node">
<title>7</title>
<ellipse fill="#add8e6" stroke="#000000" cx="201" cy="-110.2462" rx="14.7" ry="14.7"/>
<text text-anchor="middle" x="201" y="-108.0462" font-family="Times,serif" font-size="9.00" fill="#000000">7</text>
</g>
<!-- 2&#45;&gt;7 -->
<g id="edge10" class="edge">
<title>2&#45;&gt;7</title>
<path fill="none" stroke="#00ff00" stroke-width=".2831" d="M101.5736,-188.3533C117.4068,-177.1884 148.0793,-155.1772 173,-134.9949 176.0534,-132.5221 179.2292,-129.8342 182.2986,-127.1713"/>
<polygon fill="#00ff00" stroke="#00ff00" stroke-width=".2831" points="184.8444,-129.5922 190.0175,-120.3461 180.2076,-124.3481 184.8444,-129.5922"/>
</g>
<!-- 1681 -->
<g id="node10" class="node">
<title>1681</title>
<ellipse fill="#ffffff" stroke="#000000" cx="38" cy="-24.7487" rx="25" ry="25"/>
<text text-anchor="middle" x="38" y="-22.5487" font-family="Times,serif" font-size="9.00" fill="#000000">1681</text>
</g>
<!-- 2&#45;&gt;1681 -->
<g id="edge6" class="edge">
<title>2&#45;&gt;1681</title>
<path fill="none" stroke="#00ff00" stroke-width=".3386" d="M84.6625,-186.7434C76.9035,-175.2771 63.9415,-154.5899 57,-134.9949 48.3613,-110.609 43.5684,-81.7524 40.9581,-59.6798"/>
<polygon fill="#00ff00" stroke="#00ff00" stroke-width=".3386" points="44.405,-59.0016 39.8446,-49.4385 37.446,-59.7582 44.405,-59.0016"/>
</g>
<!-- 2650 -->
<g id="node11" class="node">
<title>2650</title>
<ellipse fill="#ffffff" stroke="#000000" cx="91" cy="-110.2462" rx="25" ry="25"/>
<text text-anchor="middle" x="91" y="-108.0462" font-family="Times,serif" font-size="9.00" fill="#000000">2650</text>
</g>
<!-- 2&#45;&gt;2650 -->
<g id="edge15" class="edge">
<title>2&#45;&gt;2650</title>
<path fill="none" stroke="#00ff00" stroke-width=".1059" d="M91,-186.594C91,-176.7237 91,-160.3977 91,-145.3707"/>
<polygon fill="#00ff00" stroke="#00ff00" stroke-width=".1059" points="94.5001,-145.2702 91,-135.2702 87.5001,-145.2702 94.5001,-145.2702"/>
</g>
<!-- 3 -->
<g id="node3" class="node">
<title>3</title>
<polygon fill="#add8e6" stroke="#000000" points="197.5,-280.3417 176.5,-280.3417 176.5,-262.3417 197.5,-262.3417 197.5,-280.3417"/>
<text text-anchor="middle" x="187" y="-269.1417" font-family="Times,serif" font-size="9.00" fill="#000000">3</text>
</g>
<!-- 3&#45;&gt;2 -->
<g id="edge18" class="edge">
<title>3&#45;&gt;2</title>
<path fill="none" stroke="#00ff00" stroke-width=".4785" d="M176.3595,-262.9625C160.2851,-250.3042 129.5819,-226.1261 109.714,-210.4806"/>
<polygon fill="#00ff00" stroke="#00ff00" stroke-width=".4785" points="111.71,-207.5974 101.6881,-204.1604 107.3792,-213.097 111.71,-207.5974"/>
</g>
<!-- 3&#45;&gt;3 -->
<g id="edge13" class="edge">
<title>3&#45;&gt;3</title>
<path fill="none" stroke="#ff0000" stroke-width=".3121" d="M197.2271,-280.4219C206.1067,-284.5637 215.5,-281.537 215.5,-271.3417 215.5,-265.1289 212.0119,-261.5781 207.2775,-260.6893"/>
<polygon fill="#ff0000" stroke="#ff0000" stroke-width=".3121" points="206.566,-257.2579 197.2271,-262.2615 207.6479,-264.1738 206.566,-257.2579"/>
</g>
<!-- 3&#45;&gt;4 -->
<g id="edge21" class="edge">
<title>3&#45;&gt;4</title>
<path fill="none" stroke="#00ff00" stroke-width=".1237" d="M192.0269,-280.517C193.7364,-288.8951 194.1739,-301.5468 193.3394,-312.1124"/>
<polygon fill="#00ff00" stroke="#00ff00" stroke-width=".1237" points="189.86,-311.7266 192.0094,-322.1011 196.7987,-312.6506 189.86,-311.7266"/>
</g>
<!-- 3&#45;&gt;5 -->
<g id="edge11" class="edge">
<title>3&#45;&gt;5</title>
<path fill="none" stroke="#00ff00" stroke-width=".2663" stroke-dasharray="1,5" d="M197.5465,-265.3867C213.3167,-256.3361 243.779,-238.2835 268,-220.4924 271.384,-218.0067 274.8717,-215.2332 278.2039,-212.4672"/>
<polygon fill="#00ff00" stroke="#00ff00" stroke-width=".2663" points="280.6997,-214.9379 286.0189,-205.775 276.1467,-209.6209 280.6997,-214.9379"/>
</g>
<!-- 3&#45;&gt;7 -->
<g id="edge7" class="edge">
<title>3&#45;&gt;7</title>
<path fill="none" stroke="#ff0000" stroke-width=".4751" stroke-dasharray="1,5" d="M197.8667,-263.8503C209.5841,-255.0408 227.5571,-239.2199 235,-220.4924 243.1249,-200.0489 240.5517,-192.2818 235,-170.9949 231.2827,-156.7417 223.3988,-142.2912 216.1581,-131.0617"/>
<polygon fill="#ff0000" stroke="#ff0000" stroke-width=".4751" points="218.8387,-128.7781 210.3327,-122.4615 213.0431,-132.7038 218.8387,-128.7781"/>
</g>
<!-- 2672 -->
<g id="node9" class="node">
<title>2672</title>
<ellipse fill="#ffffff" stroke="#000000" cx="201" cy="-195.7437" rx="25" ry="25"/>
<text text-anchor="middle" x="201" y="-193.5437" font-family="Times,serif" font-size="9.00" fill="#000000">2672</text>
</g>
<!-- 3&#45;&gt;2672 -->
<g id="edge12" class="edge">
<title>3&#45;&gt;2672</title>
<path fill="none" stroke="#00ff00" stroke-width=".3294" d="M188.7167,-262.0719C190.1963,-254.0823 192.4288,-242.0271 194.5864,-230.376"/>
<polygon fill="#00ff00" stroke="#00ff00" stroke-width=".3294" points="198.063,-230.8237 196.4425,-220.3535 191.18,-229.5489 198.063,-230.8237"/>
</g>
<!-- 4&#45;&gt;3 -->
<g id="edge16" class="edge">
<title>4&#45;&gt;3</title>
<path fill="none" stroke="#00ff00" stroke-width=".1476" d="M181.9906,-322.1011C180.2725,-313.7523 179.8263,-301.108 180.6521,-290.5283"/>
<polygon fill="#00ff00" stroke="#00ff00" stroke-width=".1476" points="184.1348,-290.889 181.9731,-280.517 177.1949,-289.9732 184.1348,-290.889"/>
</g>
<!-- 4&#45;&gt;0 -->
<g id="edge9" class="edge">
<title>4&#45;&gt;0</title>
<path fill="none" stroke="#00ff00" stroke-width=".3347" d="M181.799,-321.8558C177.1063,-312.9702 170.4298,-299.0793 167,-286.1909 153.0346,-233.712 149.7743,-169.7684 149.0931,-135.2484"/>
<polygon fill="#00ff00" stroke="#00ff00" stroke-width=".3347" points="152.5912,-135.0767 148.9523,-125.1263 145.5919,-135.1741 152.5912,-135.0767"/>
</g>
<!-- 4&#45;&gt;5 -->
<g id="edge1" class="edge">
<title>4&#45;&gt;5</title>
<path fill="none" stroke="#00ff00" stroke-width=".2496" stroke-dasharray="1,5" d="M194.6779,-321.9032C202.1784,-312.8182 213.9069,-298.5807 224,-286.1909 243.7147,-261.9902 266.2577,-234.0123 281.0129,-215.6579"/>
<polygon fill="#00ff00" stroke="#00ff00" stroke-width=".2496" points="284.0491,-217.4671 287.5842,-207.4794 278.5923,-213.0826 284.0491,-217.4671"/>
</g>
<!-- 4&#45;&gt;6 -->
<g id="edge17" class="edge">
<title>4&#45;&gt;6</title>
<path fill="none" stroke="#ff0000" stroke-width=".2387" stroke-dasharray="1,5" d="M197.7018,-324.786C213.781,-315.1627 244.5077,-296.773 265.3761,-284.2834"/>
<polygon fill="#ff0000" stroke="#ff0000" stroke-width=".2387" points="267.3992,-287.1516 274.1825,-279.0129 263.8044,-281.1451 267.3992,-287.1516"/>
</g>
<!-- 2672&#45;&gt;7 -->
<g id="edge22" class="edge">
<title>2672&#45;&gt;7</title>
<path fill="none" stroke="#ff0000" stroke-width=".2678" d="M201,-170.5541C201,-159.4712 201,-146.4825 201,-135.4034"/>
<polygon fill="#ff0000" stroke="#ff0000" stroke-width=".2678" points="204.5001,-135.1021 201,-125.1021 197.5001,-135.1021 204.5001,-135.1021"/>
</g>
<!-- 1681&#45;&gt;1 -->
<g id="edge5" class="edge">
<title>1681&#45;&gt;1</title>
<path fill="none" stroke="#00ff00" stroke-width=".2052" d="M29.3772,-48.1722C18.1656,-80.7794 0,-141.9165 0,-195.7437 0,-271.3417 0,-271.3417 0,-271.3417 0,-348.5656 117.787,-374.9233 166.3982,-382.513"/>
<polygon fill="#00ff00" stroke="#00ff00" stroke-width=".2052" points="166.0124,-385.9935 176.4103,-383.9601 167.0138,-379.0655 166.0124,-385.9935"/>
</g>
<!-- 2650&#45;&gt;1681 -->
<g id="edge19" class="edge">
<title>2650&#45;&gt;1681</title>
<path fill="none" stroke="#ff0000" stroke-width=".5309" d="M77.8989,-89.112C71.4649,-78.733 63.6009,-66.0471 56.5606,-54.69"/>
<polygon fill="#ff0000" stroke="#ff0000" stroke-width=".5309" points="59.3777,-52.5915 51.1341,-45.9361 53.4281,-56.2796 59.3777,-52.5915"/>
</g>
</g>
</svg>
