<?xml version="1.0" encoding="UTF-8" standalone="no"?>
<!DOCTYPE svg PUBLIC "-//W3C//DTD SVG 1.1//EN"
 "http://www.w3.org/Graphics/SVG/1.1/DTD/svg11.dtd">
<!-- Generated by graphviz version 2.40.1 (20161225.0304)
 -->
<!-- Title: %3 Pages: 1 -->
<svg width="278pt" height="267pt"
 viewBox="0.00 0.00 277.53 267.01" xmlns="http://www.w3.org/2000/svg" xmlns:xlink="http://www.w3.org/1999/xlink">
<g id="graph0" class="graph" transform="scale(1 1) rotate(0) translate(4 263.012)">
<title>%3</title>
<polygon fill="#ffffff" stroke="transparent" points="-4,4 -4,-263.012 273.5267,-263.012 273.5267,4 -4,4"/>
<!-- 1 -->
<g id="node1" class="node">
<title>1</title>
<polygon fill="#add8e6" stroke="#000000" points="192.2836,-257.397 171.2836,-257.397 171.2836,-239.397 192.2836,-239.397 192.2836,-257.397"/>
<text text-anchor="middle" x="181.7836" y="-246.197" font-family="Times,serif" font-size="9.00" fill="#000000">1</text>
</g>
<!-- 1&#45;&gt;1 -->
<g id="edge13" class="edge">
<title>1&#45;&gt;1</title>
<path fill="none" stroke="#ff0000" stroke-width=".2718" stroke-dasharray="1,5" d="M192.3068,-256.977C201.0978,-260.6437 210.2836,-257.7837 210.2836,-248.397 210.2836,-242.8236 207.0452,-239.5512 202.574,-238.5796"/>
<polygon fill="#ff0000" stroke="#ff0000" stroke-width=".2718" points="201.8162,-235.1455 192.3068,-239.8169 202.6538,-242.0953 201.8162,-235.1455"/>
</g>
<!-- 4 -->
<g id="node4" class="node">
<title>4</title>
<polygon fill="#add8e6" stroke="#000000" points="164.2836,-203.397 143.2836,-203.397 143.2836,-185.397 164.2836,-185.397 164.2836,-203.397"/>
<text text-anchor="middle" x="153.7836" y="-192.197" font-family="Times,serif" font-size="9.00" fill="#000000">4</text>
</g>
<!-- 1&#45;&gt;4 -->
<g id="edge21" class="edge">
<title>1&#45;&gt;4</title>
<path fill="none" stroke="#00ff00" stroke-width=".4459" stroke-dasharray="1,5" d="M176.9063,-238.9909C173.1724,-231.7897 167.9049,-221.631 163.3404,-212.8281"/>
<polygon fill="#00ff00" stroke="#00ff00" stroke-width=".4459" points="166.3153,-210.9617 158.6049,-203.6953 160.101,-214.1839 166.3153,-210.9617"/>
</g>
<!-- 5 -->
<g id="node6" class="node">
<title>5</title>
<ellipse fill="#add8e6" stroke="#000000" cx="30.7836" cy="-134.5477" rx="14.7" ry="14.7"/>
<text text-anchor="middle" x="30.7836" y="-132.3477" font-family="Times,serif" font-size="9.00" fill="#000000">5</text>
</g>
<!-- 1&#45;&gt;5 -->
<g id="edge9" class="edge">
<title>1&#45;&gt;5</title>
<path fill="none" stroke="#00ff00" stroke-width=".1787" d="M170.924,-240.2092C145.8285,-221.288 83.4872,-174.2846 51.0778,-149.8489"/>
<polygon fill="#00ff00" stroke="#00ff00" stroke-width=".1787" points="52.8781,-146.8229 42.7862,-143.5973 48.6639,-152.4123 52.8781,-146.8229"/>
</g>
<!-- 6 -->
<g id="node7" class="node">
<title>6</title>
<ellipse fill="#add8e6" stroke="#000000" cx="253.7836" cy="-14.8492" rx="14.7" ry="14.7"/>
<text text-anchor="middle" x="253.7836" y="-12.6492" font-family="Times,serif" font-size="9.00" fill="#000000">6</text>
</g>
<!-- 1&#45;&gt;6 -->
<g id="edge23" class="edge">
<title>1&#45;&gt;6</title>
<path fill="none" stroke="#00ff00" stroke-width=".1534" stroke-dasharray="1,5" d="M192.3248,-243.5692C206.3222,-236.6328 230.8892,-222.543 244.7836,-203.397 280.323,-154.4246 269.2785,-78.0116 260.3598,-39.2169"/>
<polygon fill="#00ff00" stroke="#00ff00" stroke-width=".1534" points="263.7165,-38.2088 257.9411,-29.3265 256.9168,-39.8717 263.7165,-38.2088"/>
</g>
<!-- 7 -->
<g id="node8" class="node">
<title>7</title>
<ellipse fill="#add8e6" stroke="#000000" cx="80.7836" cy="-14.8492" rx="14.7" ry="14.7"/>
<text text-anchor="middle" x="80.7836" y="-12.6492" font-family="Times,serif" font-size="9.00" fill="#000000">7</text>
</g>
<!-- 1&#45;&gt;7 -->
<g id="edge17" class="edge">
<title>1&#45;&gt;7</title>
<path fill="none" stroke="#ff0000" stroke-width=".4316" d="M170.8409,-246.2284C138.48,-239.1528 43.228,-213.4014 6.7836,-149.397 -17.4685,-106.805 31.2805,-55.9941 60.6847,-30.7371"/>
<polygon fill="#ff0000" stroke="#ff0000" stroke-width=".4316" points="63.2891,-33.1233 68.738,-24.037 58.8121,-27.7421 63.2891,-33.1233"/>
</g>
<!-- 2 -->
<g id="node2" class="node">
<title>2</title>
<polygon fill="#add8e6" stroke="#000000" points="217.2836,-143.5477 196.2836,-143.5477 196.2836,-125.5477 217.2836,-125.5477 217.2836,-143.5477"/>
<text text-anchor="middle" x="206.7836" y="-132.3477" font-family="Times,serif" font-size="9.00" fill="#000000">2</text>
</g>
<!-- 2&#45;&gt;1 -->
<g id="edge5" class="edge">
<title>2&#45;&gt;1</title>
<path fill="none" stroke="#ff0000" stroke-width=".2208" stroke-dasharray="1,5" d="M204.7579,-143.9048C201.8871,-157.1518 196.4632,-182.1303 191.7836,-203.397 189.9153,-211.8872 187.8321,-221.2743 186.0527,-229.2686"/>
<polygon fill="#ff0000" stroke="#ff0000" stroke-width=".2208" points="182.6227,-228.5696 183.8633,-239.0915 189.455,-230.0925 182.6227,-228.5696"/>
</g>
<!-- 2&#45;&gt;2 -->
<g id="edge4" class="edge">
<title>2&#45;&gt;2</title>
<path fill="none" stroke="#00ff00" stroke-width=".1702" stroke-dasharray="1,5" d="M217.0106,-143.6279C225.8903,-147.7698 235.2836,-144.743 235.2836,-134.5477 235.2836,-128.335 231.7955,-124.7842 227.0611,-123.8953"/>
<polygon fill="#00ff00" stroke="#00ff00" stroke-width=".1702" points="226.3495,-120.464 217.0106,-125.4675 227.4314,-127.3799 226.3495,-120.464"/>
</g>
<!-- 3 -->
<g id="node3" class="node">
<title>3</title>
<polygon fill="#add8e6" stroke="#000000" points="187.2836,-83.6985 166.2836,-83.6985 166.2836,-65.6985 187.2836,-65.6985 187.2836,-83.6985"/>
<text text-anchor="middle" x="176.7836" y="-72.4985" font-family="Times,serif" font-size="9.00" fill="#000000">3</text>
</g>
<!-- 2&#45;&gt;3 -->
<g id="edge16" class="edge">
<title>2&#45;&gt;3</title>
<path fill="none" stroke="#ff0000" stroke-width=".1575" d="M197.2179,-125.4579C191.2526,-117.0212 184.3876,-104.1982 179.9125,-93.5517"/>
<polygon fill="#ff0000" stroke="#ff0000" stroke-width=".1575" points="183.0906,-92.0528 176.3559,-83.8738 176.5202,-94.4674 183.0906,-92.0528"/>
</g>
<!-- 2&#45;&gt;4 -->
<g id="edge20" class="edge">
<title>2&#45;&gt;4</title>
<path fill="none" stroke="#00ff00" stroke-width=".3316" d="M203.7212,-143.6701C197.052,-153.4716 183.4156,-169.1662 171.8888,-180.5041"/>
<polygon fill="#00ff00" stroke="#00ff00" stroke-width=".3316" points="169.2811,-178.1503 164.3573,-187.5315 174.0566,-183.2684 169.2811,-178.1503"/>
</g>
<!-- 0 -->
<g id="node5" class="node">
<title>0</title>
<ellipse fill="#add8e6" stroke="#000000" cx="176.7836" cy="-14.8492" rx="14.7" ry="14.7"/>
<text text-anchor="middle" x="176.7836" y="-12.6492" font-family="Times,serif" font-size="9.00" fill="#000000">0</text>
</g>
<!-- 2&#45;&gt;0 -->
<g id="edge3" class="edge">
<title>2&#45;&gt;0</title>
<path fill="none" stroke="#ff0000" stroke-width="1.3196" d="M206.1378,-125.5026C205.0396,-112.2132 202.362,-86.7118 196.7836,-65.6985 194.2993,-56.3407 190.617,-46.3621 187.0867,-37.7451"/>
<polygon fill="#ff0000" stroke="#ff0000" stroke-width="1.3196" points="190.2334,-36.2012 183.0933,-28.3738 183.7938,-38.9455 190.2334,-36.2012"/>
</g>
<!-- 2&#45;&gt;6 -->
<g id="edge24" class="edge">
<title>2&#45;&gt;6</title>
<path fill="none" stroke="#00ff00" stroke-width=".6151" stroke-dasharray="1,5" d="M210.4716,-125.1552C217.7633,-106.5847 234.2164,-64.6824 244.6143,-38.2013"/>
<polygon fill="#00ff00" stroke="#00ff00" stroke-width=".6151" points="247.8741,-39.4754 248.2712,-28.888 241.3584,-36.9169 247.8741,-39.4754"/>
</g>
<!-- 2&#45;&gt;7 -->
<g id="edge11" class="edge">
<title>2&#45;&gt;7</title>
<path fill="none" stroke="#ff0000" stroke-width=".46" d="M196.8966,-125.1552C175.7757,-105.0907 125.9838,-57.789 98.9734,-32.1293"/>
<polygon fill="#ff0000" stroke="#ff0000" stroke-width=".46" points="101.3507,-29.5602 91.69,-25.2102 96.5295,-34.6352 101.3507,-29.5602"/>
</g>
<!-- 3&#45;&gt;1 -->
<g id="edge6" class="edge">
<title>3&#45;&gt;1</title>
<path fill="none" stroke="#00ff00" stroke-width=".6897" d="M187.4872,-78.1158C203.3634,-83.8332 232.5876,-97.003 244.7836,-119.6985 266.1412,-159.4429 225.6133,-207.4706 200.169,-232.0949"/>
<polygon fill="#00ff00" stroke="#00ff00" stroke-width=".6897" points="197.4528,-229.8428 192.5354,-239.2274 202.2318,-234.9576 197.4528,-229.8428"/>
</g>
<!-- 3&#45;&gt;2 -->
<g id="edge19" class="edge">
<title>3&#45;&gt;2</title>
<path fill="none" stroke="#00ff00" stroke-width=".3247" stroke-dasharray="1,5" d="M186.4097,-83.8738C192.381,-92.3401 199.2409,-105.1705 203.6998,-115.8022"/>
<polygon fill="#00ff00" stroke="#00ff00" stroke-width=".3247" points="200.5106,-117.2718 207.2366,-125.4579 207.0836,-114.8642 200.5106,-117.2718"/>
</g>
<!-- 3&#45;&gt;4 -->
<g id="edge22" class="edge">
<title>3&#45;&gt;4</title>
<path fill="none" stroke="#00ff00" stroke-width=".407" d="M178.8279,-83.7198C178.5587,-103.1474 170.1278,-149.2949 162.5102,-175.453"/>
<polygon fill="#00ff00" stroke="#00ff00" stroke-width=".407" points="159.1682,-174.4129 159.4314,-185.0044 165.8306,-176.5605 159.1682,-174.4129"/>
</g>
<!-- 3&#45;&gt;0 -->
<g id="edge18" class="edge">
<title>3&#45;&gt;0</title>
<path fill="none" stroke="#00ff00" stroke-width=".2262" d="M176.7836,-65.6087C176.7836,-58.8397 176.7836,-49.2471 176.7836,-40.2205"/>
<polygon fill="#00ff00" stroke="#00ff00" stroke-width=".2262" points="180.2837,-40.0872 176.7836,-30.0872 173.2837,-40.0872 180.2837,-40.0872"/>
</g>
<!-- 3&#45;&gt;6 -->
<g id="edge1" class="edge">
<title>3&#45;&gt;6</title>
<path fill="none" stroke="#00ff00" stroke-width=".3257" d="M187.4901,-66.3767C199.4422,-57.0868 219.0464,-41.8491 233.843,-30.3483"/>
<polygon fill="#00ff00" stroke="#00ff00" stroke-width=".3257" points="236.1577,-32.9821 241.9053,-24.0818 231.8618,-27.4553 236.1577,-32.9821"/>
</g>
<!-- 3&#45;&gt;7 -->
<g id="edge14" class="edge">
<title>3&#45;&gt;7</title>
<path fill="none" stroke="#00ff00" stroke-width=".3332" stroke-dasharray="1,5" d="M166.1431,-68.0649C150.8028,-58.5013 122.1395,-40.6318 102.2853,-28.254"/>
<polygon fill="#00ff00" stroke="#00ff00" stroke-width=".3332" points="103.9406,-25.1616 93.603,-22.8412 100.2373,-31.1018 103.9406,-25.1616"/>
</g>
<!-- 4&#45;&gt;2 -->
<g id="edge15" class="edge">
<title>4&#45;&gt;2</title>
<path fill="none" stroke="#ff0000" stroke-width=".1788" stroke-dasharray="1,5" d="M156.8238,-185.3072C163.4701,-175.5297 177.0779,-159.8611 188.6011,-148.5166"/>
<polygon fill="#ff0000" stroke="#ff0000" stroke-width=".1788" points="191.2163,-150.8631 196.1345,-141.479 186.4377,-145.7479 191.2163,-150.8631"/>
</g>
<!-- 4&#45;&gt;3 -->
<g id="edge8" class="edge">
<title>4&#45;&gt;3</title>
<path fill="none" stroke="#ff0000" stroke-width=".1533" d="M151.7453,-185.0044C152.1155,-165.3291 160.519,-119.4632 168.0997,-93.496"/>
<polygon fill="#ff0000" stroke="#ff0000" stroke-width=".1533" points="171.5145,-94.3119 171.2723,-83.7198 164.8564,-92.1511 171.5145,-94.3119"/>
</g>
<!-- 4&#45;&gt;4 -->
<g id="edge7" class="edge">
<title>4&#45;&gt;4</title>
<path fill="none" stroke="#ff0000" stroke-width=".2848" d="M164.3068,-202.977C173.0978,-206.6437 182.2836,-203.7837 182.2836,-194.397 182.2836,-188.8236 179.0452,-185.5512 174.574,-184.5796"/>
<polygon fill="#ff0000" stroke="#ff0000" stroke-width=".2848" points="173.8162,-181.1455 164.3068,-185.8169 174.6538,-188.0953 173.8162,-181.1455"/>
</g>
<!-- 4&#45;&gt;0 -->
<g id="edge10" class="edge">
<title>4&#45;&gt;0</title>
<path fill="none" stroke="#00ff00" stroke-width=".3965" d="M153.0566,-185.233C151.5894,-163.9806 149.1068,-109.7848 157.7836,-65.6985 159.641,-56.261 163.0374,-46.2663 166.4504,-37.6587"/>
<polygon fill="#00ff00" stroke="#00ff00" stroke-width=".3965" points="169.7321,-38.8833 170.3733,-28.3079 163.2771,-36.1752 169.7321,-38.8833"/>
</g>
<!-- 4&#45;&gt;5 -->
<g id="edge2" class="edge">
<title>4&#45;&gt;5</title>
<path fill="none" stroke="#00ff00" stroke-width=".7186" stroke-dasharray="1,5" d="M143.0245,-189.3609C125.5112,-181.1377 89.7785,-164.2526 59.7836,-149.397 57.6024,-148.3167 55.3351,-147.18 53.0723,-146.0365"/>
<polygon fill="#00ff00" stroke="#00ff00" stroke-width=".7186" points="54.5264,-142.8492 44.0279,-141.4235 51.3459,-149.085 54.5264,-142.8492"/>
</g>
<!-- 4&#45;&gt;7 -->
<g id="edge12" class="edge">
<title>4&#45;&gt;7</title>
<path fill="none" stroke="#ff0000" stroke-width=".1545" stroke-dasharray="1,5" d="M150.0631,-185.2463C139.0779,-158.2276 106.5378,-78.1933 90.2677,-38.1761"/>
<polygon fill="#ff0000" stroke="#ff0000" stroke-width=".1545" points="93.4224,-36.6421 86.4137,-28.6968 86.9378,-39.2786 93.4224,-36.6421"/>
</g>
</g>
</svg>
