<?xml version="1.0" encoding="UTF-8" standalone="no"?>
<!DOCTYPE svg PUBLIC "-//W3C//DTD SVG 1.1//EN"
 "http://www.w3.org/Graphics/SVG/1.1/DTD/svg11.dtd">
<!-- Generated by graphviz version 2.40.1 (20161225.0304)
 -->
<!-- Title: %3 Pages: 1 -->
<svg width="289pt" height="267pt"
 viewBox="0.00 0.00 289.28 267.01" xmlns="http://www.w3.org/2000/svg" xmlns:xlink="http://www.w3.org/1999/xlink">
<g id="graph0" class="graph" transform="scale(1 1) rotate(0) translate(4 263.012)">
<title>%3</title>
<polygon fill="#ffffff" stroke="transparent" points="-4,4 -4,-263.012 285.2755,-263.012 285.2755,4 -4,4"/>
<!-- 1 -->
<g id="node1" class="node">
<title>1</title>
<polygon fill="#add8e6" stroke="#000000" points="105.9262,-257.397 84.9262,-257.397 84.9262,-239.397 105.9262,-239.397 105.9262,-257.397"/>
<text text-anchor="middle" x="95.4262" y="-246.197" font-family="Times,serif" font-size="9.00" fill="#000000">1</text>
</g>
<!-- 1&#45;&gt;1 -->
<g id="edge5" class="edge">
<title>1&#45;&gt;1</title>
<path fill="none" stroke="#ff0000" stroke-width=".179" d="M105.9495,-256.977C114.7405,-260.6437 123.9262,-257.7837 123.9262,-248.397 123.9262,-242.8236 120.6879,-239.5512 116.2166,-238.5796"/>
<polygon fill="#ff0000" stroke="#ff0000" stroke-width=".179" points="115.4589,-235.1455 105.9495,-239.8169 116.2964,-242.0953 115.4589,-235.1455"/>
</g>
<!-- 2 -->
<g id="node2" class="node">
<title>2</title>
<polygon fill="#add8e6" stroke="#000000" points="105.9262,-203.397 84.9262,-203.397 84.9262,-185.397 105.9262,-185.397 105.9262,-203.397"/>
<text text-anchor="middle" x="95.4262" y="-192.197" font-family="Times,serif" font-size="9.00" fill="#000000">2</text>
</g>
<!-- 1&#45;&gt;2 -->
<g id="edge4" class="edge">
<title>1&#45;&gt;2</title>
<path fill="none" stroke="#ff0000" stroke-width=".2818" stroke-dasharray="1,5" d="M90.1594,-238.9909C88.7639,-232.022 88.3531,-222.2833 88.9272,-213.684"/>
<polygon fill="#ff0000" stroke="#ff0000" stroke-width=".2818" points="92.4083,-214.0534 90.1811,-203.6953 85.4628,-213.1814 92.4083,-214.0534"/>
</g>
<!-- 3 -->
<g id="node3" class="node">
<title>3</title>
<polygon fill="#add8e6" stroke="#000000" points="162.9262,-149.397 141.9262,-149.397 141.9262,-131.397 162.9262,-131.397 162.9262,-149.397"/>
<text text-anchor="middle" x="152.4262" y="-138.197" font-family="Times,serif" font-size="9.00" fill="#000000">3</text>
</g>
<!-- 1&#45;&gt;3 -->
<g id="edge20" class="edge">
<title>1&#45;&gt;3</title>
<path fill="none" stroke="#00ff00" stroke-width=".3086" d="M105.1404,-239.2502C113.6909,-230.7113 125.917,-217.2383 133.4262,-203.397 140.9263,-189.5727 145.8545,-172.3971 148.808,-159.4729"/>
<polygon fill="#00ff00" stroke="#00ff00" stroke-width=".3086" points="152.2932,-159.905 150.9102,-149.4008 145.4408,-158.4747 152.2932,-159.905"/>
</g>
<!-- 0 -->
<g id="node5" class="node">
<title>0</title>
<ellipse fill="#add8e6" stroke="#000000" cx="152.4262" cy="-14.8492" rx="14.7" ry="14.7"/>
<text text-anchor="middle" x="152.4262" y="-12.6492" font-family="Times,serif" font-size="9.00" fill="#000000">0</text>
</g>
<!-- 1&#45;&gt;0 -->
<g id="edge3" class="edge">
<title>1&#45;&gt;0</title>
<path fill="none" stroke="#ff0000" stroke-width=".3158" d="M88.2947,-239.2826C67.2822,-211.2454 9.3417,-124.6191 46.4262,-65.6985 64.1208,-37.5851 102.1588,-24.6658 127.5223,-18.9841"/>
<polygon fill="#ff0000" stroke="#ff0000" stroke-width=".3158" points="128.4088,-22.3759 137.5202,-16.969 127.0257,-15.5139 128.4088,-22.3759"/>
</g>
<!-- 6 -->
<g id="node7" class="node">
<title>6</title>
<ellipse fill="#add8e6" stroke="#000000" cx="47.4262" cy="-14.8492" rx="14.7" ry="14.7"/>
<text text-anchor="middle" x="47.4262" y="-12.6492" font-family="Times,serif" font-size="9.00" fill="#000000">6</text>
</g>
<!-- 1&#45;&gt;6 -->
<g id="edge22" class="edge">
<title>1&#45;&gt;6</title>
<path fill="none" stroke="#ff0000" stroke-width=".2894" d="M84.7285,-246.1907C66.3041,-241.7495 29.0594,-229.8086 13.4262,-203.397 -18.3011,-149.7948 14.5825,-73.7211 34.5278,-36.7346"/>
<polygon fill="#ff0000" stroke="#ff0000" stroke-width=".2894" points="37.6968,-38.238 39.5095,-27.7994 31.5828,-34.8292 37.6968,-38.238"/>
</g>
<!-- 7 -->
<g id="node8" class="node">
<title>7</title>
<ellipse fill="#add8e6" stroke="#000000" cx="266.4262" cy="-14.8492" rx="14.7" ry="14.7"/>
<text text-anchor="middle" x="266.4262" y="-12.6492" font-family="Times,serif" font-size="9.00" fill="#000000">7</text>
</g>
<!-- 1&#45;&gt;7 -->
<g id="edge17" class="edge">
<title>1&#45;&gt;7</title>
<path fill="none" stroke="#ff0000" stroke-width=".1726" d="M106.2821,-241.78C135.8763,-223.0769 218.1056,-166.5331 253.4262,-95.397 262.0043,-78.1207 265.1348,-56.4335 266.1861,-39.916"/>
<polygon fill="#ff0000" stroke="#ff0000" stroke-width=".1726" points="269.6837,-40.0466 266.6131,-29.9065 262.69,-39.7482 269.6837,-40.0466"/>
</g>
<!-- 2&#45;&gt;1 -->
<g id="edge14" class="edge">
<title>2&#45;&gt;1</title>
<path fill="none" stroke="#00ff00" stroke-width=".4454" d="M100.6714,-203.6953C102.0771,-210.6354 102.498,-220.3656 101.9341,-228.9765"/>
<polygon fill="#00ff00" stroke="#00ff00" stroke-width=".4454" points="98.4495,-228.6363 100.6931,-238.9909 105.3964,-229.4973 98.4495,-228.6363"/>
</g>
<!-- 2&#45;&gt;2 -->
<g id="edge2" class="edge">
<title>2&#45;&gt;2</title>
<path fill="none" stroke="#ff0000" stroke-width=".135" d="M105.9495,-202.977C114.7405,-206.6437 123.9262,-203.7837 123.9262,-194.397 123.9262,-188.8236 120.6879,-185.5512 116.2166,-184.5796"/>
<polygon fill="#ff0000" stroke="#ff0000" stroke-width=".135" points="115.4589,-181.1455 105.9495,-185.8169 116.2964,-188.0953 115.4589,-181.1455"/>
</g>
<!-- 2&#45;&gt;3 -->
<g id="edge16" class="edge">
<title>2&#45;&gt;3</title>
<path fill="none" stroke="#ff0000" stroke-width=".2049" stroke-dasharray="1,5" d="M105.0955,-185.2366C113.4163,-177.3538 125.6131,-165.7988 135.5413,-156.3932"/>
<polygon fill="#ff0000" stroke="#ff0000" stroke-width=".2049" points="138.0473,-158.8404 142.8998,-149.4221 133.2331,-153.7587 138.0473,-158.8404"/>
</g>
<!-- 5 -->
<g id="node6" class="node">
<title>5</title>
<ellipse fill="#add8e6" stroke="#000000" cx="70.4262" cy="-80.5477" rx="14.7" ry="14.7"/>
<text text-anchor="middle" x="70.4262" y="-78.3477" font-family="Times,serif" font-size="9.00" fill="#000000">5</text>
</g>
<!-- 2&#45;&gt;5 -->
<g id="edge9" class="edge">
<title>2&#45;&gt;5</title>
<path fill="none" stroke="#ff0000" stroke-width=".5717" d="M93.3804,-185.0802C89.5845,-167.794 81.3377,-130.2383 75.8334,-105.1719"/>
<polygon fill="#ff0000" stroke="#ff0000" stroke-width=".5717" points="79.2267,-104.3059 73.6633,-95.2893 72.3896,-105.8073 79.2267,-104.3059"/>
</g>
<!-- 2&#45;&gt;6 -->
<g id="edge23" class="edge">
<title>2&#45;&gt;6</title>
<path fill="none" stroke="#ff0000" stroke-width=".255" d="M89.1672,-185.3889C77.9393,-168.6176 54.7697,-131.0632 46.4262,-95.397 42.1556,-77.1411 42.6321,-55.9162 44.055,-39.8384"/>
<polygon fill="#ff0000" stroke="#ff0000" stroke-width=".255" points="47.5634,-39.9447 45.1445,-29.6297 40.603,-39.2017 47.5634,-39.9447"/>
</g>
<!-- 2&#45;&gt;7 -->
<g id="edge12" class="edge">
<title>2&#45;&gt;7</title>
<path fill="none" stroke="#ff0000" stroke-width=".346" d="M106.0724,-189.6294C131.6512,-177.6303 196.991,-143.6558 231.4262,-95.397 243.8207,-78.0269 253.1238,-55.5755 259.0112,-38.7901"/>
<polygon fill="#ff0000" stroke="#ff0000" stroke-width=".346" points="262.3771,-39.7609 262.2326,-29.167 255.7391,-37.5387 262.3771,-39.7609"/>
</g>
<!-- 4 -->
<g id="node4" class="node">
<title>4</title>
<polygon fill="#add8e6" stroke="#000000" points="162.9262,-89.5477 141.9262,-89.5477 141.9262,-71.5477 162.9262,-71.5477 162.9262,-89.5477"/>
<text text-anchor="middle" x="152.4262" y="-78.3477" font-family="Times,serif" font-size="9.00" fill="#000000">4</text>
</g>
<!-- 3&#45;&gt;4 -->
<g id="edge11" class="edge">
<title>3&#45;&gt;4</title>
<path fill="none" stroke="#00ff00" stroke-width=".8944" d="M147.4169,-131.3072C145.6987,-122.9583 145.2525,-110.3141 146.0783,-99.7344"/>
<polygon fill="#00ff00" stroke="#00ff00" stroke-width=".8944" points="149.561,-100.095 147.3994,-89.7231 142.6212,-99.1792 149.561,-100.095"/>
</g>
<!-- 3&#45;&gt;0 -->
<g id="edge8" class="edge">
<title>3&#45;&gt;0</title>
<path fill="none" stroke="#ff0000" stroke-width=".2825" stroke-dasharray="1,5" d="M163.1407,-131.7015C172.3646,-123.4664 185.0173,-110.186 190.4262,-95.397 194.9601,-83.0007 194.5894,-78.2241 190.4262,-65.6985 186.381,-53.5278 178.1608,-41.9143 170.3975,-32.8666"/>
<polygon fill="#ff0000" stroke="#ff0000" stroke-width=".2825" points="172.854,-30.3661 163.5291,-25.3364 167.6821,-35.0833 172.854,-30.3661"/>
</g>
<!-- 3&#45;&gt;5 -->
<g id="edge13" class="edge">
<title>3&#45;&gt;5</title>
<path fill="none" stroke="#00ff00" stroke-width=".1334" d="M141.7062,-132.5727C128.8127,-123.1622 106.8927,-107.1634 90.7568,-95.3864"/>
<polygon fill="#00ff00" stroke="#00ff00" stroke-width=".1334" points="92.6224,-92.4149 82.4816,-89.3465 88.4955,-98.0691 92.6224,-92.4149"/>
</g>
<!-- 3&#45;&gt;6 -->
<g id="edge1" class="edge">
<title>3&#45;&gt;6</title>
<path fill="none" stroke="#ff0000" stroke-width=".2776" d="M145.5327,-130.9945C134.9121,-116.6315 113.7487,-88.4929 94.4262,-65.6985 84.9525,-54.5225 73.8468,-42.4629 64.8101,-32.894"/>
<polygon fill="#ff0000" stroke="#ff0000" stroke-width=".2776" points="67.217,-30.3462 57.7873,-25.516 62.1468,-35.1724 67.217,-30.3462"/>
</g>
<!-- 3&#45;&gt;7 -->
<g id="edge7" class="edge">
<title>3&#45;&gt;7</title>
<path fill="none" stroke="#00ff00" stroke-width=".2538" stroke-dasharray="1,5" d="M163.1813,-132.3975C174.3351,-123.8508 191.9901,-109.6043 205.4262,-95.397 223.1216,-76.686 240.5829,-52.9449 252.2589,-36.0969"/>
<polygon fill="#00ff00" stroke="#00ff00" stroke-width=".2538" points="255.3657,-37.7537 258.1151,-27.5218 249.5851,-33.806 255.3657,-37.7537"/>
</g>
<!-- 4&#45;&gt;2 -->
<g id="edge6" class="edge">
<title>4&#45;&gt;2</title>
<path fill="none" stroke="#ff0000" stroke-width=".7463" d="M147.8565,-89.675C138.4971,-108.3692 116.9896,-151.3273 104.6251,-176.0236"/>
<polygon fill="#ff0000" stroke="#ff0000" stroke-width=".7463" points="101.438,-174.5714 100.0908,-185.0802 107.6974,-177.7052 101.438,-174.5714"/>
</g>
<!-- 4&#45;&gt;3 -->
<g id="edge18" class="edge">
<title>4&#45;&gt;3</title>
<path fill="none" stroke="#ff0000" stroke-width=".2054" stroke-dasharray="1,5" d="M157.4531,-89.7231C159.1626,-98.1011 159.6001,-110.7529 158.7656,-121.3185"/>
<polygon fill="#ff0000" stroke="#ff0000" stroke-width=".2054" points="155.2862,-120.9326 157.4356,-131.3072 162.225,-121.8566 155.2862,-120.9326"/>
</g>
<!-- 4&#45;&gt;4 -->
<g id="edge15" class="edge">
<title>4&#45;&gt;4</title>
<path fill="none" stroke="#00ff00" stroke-width=".2587" d="M162.6533,-89.6279C171.5329,-93.7698 180.9262,-90.743 180.9262,-80.5477 180.9262,-74.335 177.4381,-70.7842 172.7038,-69.8953"/>
<polygon fill="#00ff00" stroke="#00ff00" stroke-width=".2587" points="171.9922,-66.464 162.6533,-71.4675 173.0741,-73.3799 171.9922,-66.464"/>
</g>
<!-- 4&#45;&gt;0 -->
<g id="edge10" class="edge">
<title>4&#45;&gt;0</title>
<path fill="none" stroke="#00ff00" stroke-width=".1482" d="M152.4262,-71.4126C152.4262,-63.29 152.4262,-51.0254 152.4262,-39.9906"/>
<polygon fill="#00ff00" stroke="#00ff00" stroke-width=".1482" points="155.9263,-39.963 152.4262,-29.963 148.9263,-39.9631 155.9263,-39.963"/>
</g>
<!-- 4&#45;&gt;6 -->
<g id="edge19" class="edge">
<title>4&#45;&gt;6</title>
<path fill="none" stroke="#ff0000" stroke-width=".1342" stroke-dasharray="1,5" d="M141.5849,-73.7643C124.5296,-63.0928 91.1039,-42.1784 69.0157,-28.3578"/>
<polygon fill="#ff0000" stroke="#ff0000" stroke-width=".1342" points="70.6581,-25.2568 60.3243,-22.9196 66.9451,-31.1909 70.6581,-25.2568"/>
</g>
<!-- 4&#45;&gt;7 -->
<g id="edge21" class="edge">
<title>4&#45;&gt;7</title>
<path fill="none" stroke="#00ff00" stroke-width=".5159" d="M162.9467,-74.4847C181.4379,-63.8282 220.1219,-41.5345 244.5992,-27.4282"/>
<polygon fill="#00ff00" stroke="#00ff00" stroke-width=".5159" points="246.5988,-30.3155 253.5153,-22.2898 243.1035,-24.2506 246.5988,-30.3155"/>
</g>
</g>
</svg>
