<?xml version="1.0" encoding="UTF-8" standalone="no"?>
<!DOCTYPE svg PUBLIC "-//W3C//DTD SVG 1.1//EN"
 "http://www.w3.org/Graphics/SVG/1.1/DTD/svg11.dtd">
<!-- Generated by graphviz version 2.40.1 (20161225.0304)
 -->
<!-- Title: %3 Pages: 1 -->
<svg width="310pt" height="201pt"
 viewBox="0.00 0.00 309.70 201.31" xmlns="http://www.w3.org/2000/svg" xmlns:xlink="http://www.w3.org/1999/xlink">
<g id="graph0" class="graph" transform="scale(1 1) rotate(0) translate(4 197.3135)">
<title>%3</title>
<polygon fill="#ffffff" stroke="transparent" points="-4,4 -4,-197.3135 305.6985,-197.3135 305.6985,4 -4,4"/>
<!-- 1 -->
<g id="node1" class="node">
<title>1</title>
<polygon fill="#add8e6" stroke="#000000" points="93.3492,-191.6985 72.3492,-191.6985 72.3492,-173.6985 93.3492,-173.6985 93.3492,-191.6985"/>
<text text-anchor="middle" x="82.8492" y="-180.4985" font-family="Times,serif" font-size="9.00" fill="#000000">1</text>
</g>
<!-- 1&#45;&gt;1 -->
<g id="edge6" class="edge">
<title>1&#45;&gt;1</title>
<path fill="none" stroke="#ff0000" stroke-width=".1938" d="M93.3725,-191.2785C102.1635,-194.9452 111.3492,-192.0852 111.3492,-182.6985 111.3492,-177.1251 108.1109,-173.8527 103.6396,-172.8811"/>
<polygon fill="#ff0000" stroke="#ff0000" stroke-width=".1938" points="102.8819,-169.4471 93.3725,-174.1184 103.7194,-176.3968 102.8819,-169.4471"/>
</g>
<!-- 2 -->
<g id="node2" class="node">
<title>2</title>
<polygon fill="#add8e6" stroke="#000000" points="60.3492,-137.6985 39.3492,-137.6985 39.3492,-119.6985 60.3492,-119.6985 60.3492,-137.6985"/>
<text text-anchor="middle" x="49.8492" y="-126.4985" font-family="Times,serif" font-size="9.00" fill="#000000">2</text>
</g>
<!-- 1&#45;&gt;2 -->
<g id="edge3" class="edge">
<title>1&#45;&gt;2</title>
<path fill="none" stroke="#00ff00" stroke-width=".3138" d="M72.2336,-173.7815C66.2296,-166.4778 59.3531,-155.907 54.5178,-146.8368"/>
<polygon fill="#00ff00" stroke="#00ff00" stroke-width=".3138" points="57.6756,-145.3271 50.2101,-137.8092 51.358,-148.3417 57.6756,-145.3271"/>
</g>
<!-- 3 -->
<g id="node3" class="node">
<title>3</title>
<polygon fill="#add8e6" stroke="#000000" points="126.3492,-83.6985 105.3492,-83.6985 105.3492,-65.6985 126.3492,-65.6985 126.3492,-83.6985"/>
<text text-anchor="middle" x="115.8492" y="-72.4985" font-family="Times,serif" font-size="9.00" fill="#000000">3</text>
</g>
<!-- 1&#45;&gt;3 -->
<g id="edge16" class="edge">
<title>1&#45;&gt;3</title>
<path fill="none" stroke="#00ff00" stroke-width=".7312" stroke-dasharray="1,5" d="M81.683,-173.4905C83.8953,-155.7165 95.5008,-116.3801 105.017,-93.0614"/>
<polygon fill="#00ff00" stroke="#00ff00" stroke-width=".7312" points="108.232,-94.4451 109.0672,-83.8832 101.8278,-91.619 108.232,-94.4451"/>
</g>
<!-- 0 -->
<g id="node5" class="node">
<title>0</title>
<ellipse fill="#add8e6" stroke="#000000" cx="176.8492" cy="-14.8492" rx="14.7" ry="14.7"/>
<text text-anchor="middle" x="176.8492" y="-12.6492" font-family="Times,serif" font-size="9.00" fill="#000000">0</text>
</g>
<!-- 1&#45;&gt;0 -->
<g id="edge13" class="edge">
<title>1&#45;&gt;0</title>
<path fill="none" stroke="#00ff00" stroke-width=".1651" d="M93.6658,-180.9146C124.5731,-175.5957 212.2473,-158.8912 230.8492,-137.6985 252.1231,-113.4617 253.7562,-94.7948 239.8492,-65.6985 231.496,-48.2217 213.879,-34.8254 199.3929,-26.181"/>
<polygon fill="#00ff00" stroke="#00ff00" stroke-width=".1651" points="200.8922,-23.0096 190.4545,-21.1915 197.4803,-29.1218 200.8922,-23.0096"/>
</g>
<!-- 5 -->
<g id="node6" class="node">
<title>5</title>
<ellipse fill="#add8e6" stroke="#000000" cx="286.8492" cy="-14.8492" rx="14.7" ry="14.7"/>
<text text-anchor="middle" x="286.8492" y="-12.6492" font-family="Times,serif" font-size="9.00" fill="#000000">5</text>
</g>
<!-- 1&#45;&gt;5 -->
<g id="edge9" class="edge">
<title>1&#45;&gt;5</title>
<path fill="none" stroke="#00ff00" stroke-width=".1516" d="M93.5296,-181.2182C126.8194,-176.4 227.8465,-160.1703 250.8492,-137.6985 277.2345,-111.9221 284.5391,-67.9331 286.4135,-40.1806"/>
<polygon fill="#00ff00" stroke="#00ff00" stroke-width=".1516" points="289.9154,-40.2257 286.9049,-30.0676 282.9236,-39.886 289.9154,-40.2257"/>
</g>
<!-- 6 -->
<g id="node7" class="node">
<title>6</title>
<ellipse fill="#add8e6" stroke="#000000" cx="14.8492" cy="-14.8492" rx="14.7" ry="14.7"/>
<text text-anchor="middle" x="14.8492" y="-12.6492" font-family="Times,serif" font-size="9.00" fill="#000000">6</text>
</g>
<!-- 1&#45;&gt;6 -->
<g id="edge25" class="edge">
<title>1&#45;&gt;6</title>
<path fill="none" stroke="#ff0000" stroke-width=".3702" d="M71.9311,-178.2292C57.5715,-171.6992 32.8735,-158.0684 21.8492,-137.6985 5.301,-107.1217 6.9644,-65.7711 10.3719,-39.7035"/>
<polygon fill="#ff0000" stroke="#ff0000" stroke-width=".3702" points="13.8737,-39.951 11.891,-29.5434 6.9507,-38.9159 13.8737,-39.951"/>
</g>
<!-- 7 -->
<g id="node8" class="node">
<title>7</title>
<ellipse fill="#add8e6" stroke="#000000" cx="76.8492" cy="-14.8492" rx="14.7" ry="14.7"/>
<text text-anchor="middle" x="76.8492" y="-12.6492" font-family="Times,serif" font-size="9.00" fill="#000000">7</text>
</g>
<!-- 1&#45;&gt;7 -->
<g id="edge11" class="edge">
<title>1&#45;&gt;7</title>
<path fill="none" stroke="#00ff00" stroke-width=".3249" d="M72.0434,-177.1249C59.4489,-169.9448 39.2864,-156.1577 30.8492,-137.6985 14.4197,-101.7532 41.4033,-58.0886 60.4915,-33.6883"/>
<polygon fill="#00ff00" stroke="#00ff00" stroke-width=".3249" points="63.2291,-35.8694 66.8299,-25.9052 57.8013,-31.4491 63.2291,-35.8694"/>
</g>
<!-- 2&#45;&gt;1 -->
<g id="edge14" class="edge">
<title>2&#45;&gt;1</title>
<path fill="none" stroke="#ff0000" stroke-width=".2317" d="M60.4835,-137.6382C66.3629,-144.7947 73.0756,-155.0776 77.8879,-164.0138"/>
<polygon fill="#ff0000" stroke="#ff0000" stroke-width=".2317" points="74.868,-165.809 82.3679,-173.2924 81.1716,-162.7653 74.868,-165.809"/>
</g>
<!-- 2&#45;&gt;2 -->
<g id="edge5" class="edge">
<title>2&#45;&gt;2</title>
<path fill="none" stroke="#00ff00" stroke-width=".1474" d="M60.3725,-137.2785C69.1635,-140.9452 78.3492,-138.0852 78.3492,-128.6985 78.3492,-123.1251 75.1109,-119.8527 70.6396,-118.8811"/>
<polygon fill="#00ff00" stroke="#00ff00" stroke-width=".1474" points="69.8819,-115.4471 60.3725,-120.1184 70.7194,-122.3968 69.8819,-115.4471"/>
</g>
<!-- 2&#45;&gt;3 -->
<g id="edge21" class="edge">
<title>2&#45;&gt;3</title>
<path fill="none" stroke="#ff0000" stroke-width=".5138" d="M56.0787,-119.2924C65.6037,-109.9722 82.9452,-95.6979 96.6738,-85.8207"/>
<polygon fill="#ff0000" stroke="#ff0000" stroke-width=".5138" points="98.7958,-88.6093 105.0554,-80.0612 94.8314,-82.8401 98.7958,-88.6093"/>
</g>
<!-- 2&#45;&gt;0 -->
<g id="edge4" class="edge">
<title>2&#45;&gt;0</title>
<path fill="none" stroke="#ff0000" stroke-width=".2662" stroke-dasharray="1,5" d="M55.3212,-119.318C63.2766,-106.2242 79.044,-82.22 96.8492,-65.6985 114.1945,-49.6038 137.2917,-35.5479 154.2081,-26.3177"/>
<polygon fill="#ff0000" stroke="#ff0000" stroke-width=".2662" points="156.1694,-29.2394 163.3639,-21.4618 152.8896,-23.0553 156.1694,-29.2394"/>
</g>
<!-- 2&#45;&gt;6 -->
<g id="edge24" class="edge">
<title>2&#45;&gt;6</title>
<path fill="none" stroke="#ff0000" stroke-width=".2601" d="M46.985,-119.3817C41.6423,-102.0026 30.001,-64.1354 22.2953,-39.0702"/>
<polygon fill="#ff0000" stroke="#ff0000" stroke-width=".2601" points="25.5478,-37.7389 19.2637,-29.2088 18.8568,-39.7959 25.5478,-37.7389"/>
</g>
<!-- 2&#45;&gt;7 -->
<g id="edge17" class="edge">
<title>2&#45;&gt;7</title>
<path fill="none" stroke="#ff0000" stroke-width=".3019" stroke-dasharray="1,5" d="M51.5175,-119.6854C53.8314,-107.4198 58.2519,-84.8088 62.8492,-65.6985 64.9273,-57.0603 67.4413,-47.6652 69.7623,-39.328"/>
<polygon fill="#ff0000" stroke="#ff0000" stroke-width=".3019" points="73.1968,-40.045 72.5517,-29.4699 66.4612,-38.1392 73.1968,-40.045"/>
</g>
<!-- 3&#45;&gt;1 -->
<g id="edge7" class="edge">
<title>3&#45;&gt;1</title>
<path fill="none" stroke="#ff0000" stroke-width=".2323" d="M117.0184,-83.8832C114.8143,-101.6383 103.2119,-140.9723 93.6939,-164.305"/>
<polygon fill="#ff0000" stroke="#ff0000" stroke-width=".2323" points="90.4758,-162.9284 89.6426,-173.4905 96.8805,-165.7533 90.4758,-162.9284"/>
</g>
<!-- 3&#45;&gt;2 -->
<g id="edge22" class="edge">
<title>3&#45;&gt;2</title>
<path fill="none" stroke="#00ff00" stroke-width=".2046" stroke-dasharray="1,5" d="M109.6395,-84.0853C100.0553,-93.4672 82.5312,-107.8829 68.7506,-117.7732"/>
<polygon fill="#00ff00" stroke="#00ff00" stroke-width=".2046" points="66.6302,-114.9832 60.3564,-123.5207 70.585,-120.759 66.6302,-114.9832"/>
</g>
<!-- 3&#45;&gt;3 -->
<g id="edge10" class="edge">
<title>3&#45;&gt;3</title>
<path fill="none" stroke="#ff0000" stroke-width=".2271" d="M126.3725,-83.2785C135.1635,-86.9452 144.3492,-84.0852 144.3492,-74.6985 144.3492,-69.1251 141.1109,-65.8527 136.6396,-64.8811"/>
<polygon fill="#ff0000" stroke="#ff0000" stroke-width=".2271" points="135.8819,-61.4471 126.3725,-66.1184 136.7194,-68.3968 135.8819,-61.4471"/>
</g>
<!-- 3&#45;&gt;0 -->
<g id="edge8" class="edge">
<title>3&#45;&gt;0</title>
<path fill="none" stroke="#00ff00" stroke-width=".3708" d="M125.1138,-65.6087C133.9961,-56.894 147.6483,-43.4993 158.6985,-32.6575"/>
<polygon fill="#00ff00" stroke="#00ff00" stroke-width=".3708" points="161.1554,-35.1503 165.8423,-25.6485 156.253,-30.1536 161.1554,-35.1503"/>
</g>
<!-- 3&#45;&gt;5 -->
<g id="edge20" class="edge">
<title>3&#45;&gt;5</title>
<path fill="none" stroke="#00ff00" stroke-width=".2654" d="M126.5461,-70.9546C153.5469,-61.5045 224.9894,-36.4999 262.7203,-23.2943"/>
<polygon fill="#00ff00" stroke="#00ff00" stroke-width=".2654" points="264.1211,-26.5122 272.4035,-19.9052 261.8086,-19.9052 264.1211,-26.5122"/>
</g>
<!-- 3&#45;&gt;6 -->
<g id="edge1" class="edge">
<title>3&#45;&gt;6</title>
<path fill="none" stroke="#00ff00" stroke-width=".6064" d="M105.0405,-68.2936C88.7273,-58.6269 57.4865,-40.1147 36.4052,-27.6226"/>
<polygon fill="#00ff00" stroke="#00ff00" stroke-width=".6064" points="38.1823,-24.6073 27.795,-22.5204 34.6137,-30.6294 38.1823,-24.6073"/>
</g>
<!-- 3&#45;&gt;7 -->
<g id="edge15" class="edge">
<title>3&#45;&gt;7</title>
<path fill="none" stroke="#00ff00" stroke-width=".478" d="M109.926,-65.6087C104.7839,-57.7176 97.1413,-45.9894 90.4975,-35.7939"/>
<polygon fill="#00ff00" stroke="#00ff00" stroke-width=".478" points="93.3961,-33.831 85.0041,-27.3637 87.5313,-37.6527 93.3961,-33.831"/>
</g>
<!-- 4 -->
<g id="node4" class="node">
<title>4</title>
<polygon fill="#add8e6" stroke="#000000" points="221.3492,-137.6985 200.3492,-137.6985 200.3492,-119.6985 221.3492,-119.6985 221.3492,-137.6985"/>
<text text-anchor="middle" x="210.8492" y="-126.4985" font-family="Times,serif" font-size="9.00" fill="#000000">4</text>
</g>
<!-- 4&#45;&gt;3 -->
<g id="edge19" class="edge">
<title>4&#45;&gt;3</title>
<path fill="none" stroke="#00ff00" stroke-width=".388" d="M200.3196,-122.7132C184.6266,-113.793 154.8441,-96.864 135.1676,-85.6794"/>
<polygon fill="#00ff00" stroke="#00ff00" stroke-width=".388" points="136.8493,-82.6095 126.426,-80.7106 133.3901,-88.6951 136.8493,-82.6095"/>
</g>
<!-- 4&#45;&gt;0 -->
<g id="edge18" class="edge">
<title>4&#45;&gt;0</title>
<path fill="none" stroke="#ff0000" stroke-width=".5125" d="M216.23,-119.4554C222.784,-106.9292 232.1323,-84.0238 224.8492,-65.6985 219.2594,-51.6335 207.7299,-39.208 197.3718,-30.1608"/>
<polygon fill="#ff0000" stroke="#ff0000" stroke-width=".5125" points="199.4027,-27.2998 189.4518,-23.6627 194.9627,-32.7115 199.4027,-27.2998"/>
</g>
<!-- 4&#45;&gt;5 -->
<g id="edge2" class="edge">
<title>4&#45;&gt;5</title>
<path fill="none" stroke="#00ff00" stroke-width=".2425" d="M217.0686,-119.3817C229.193,-101.2193 256.2548,-60.6802 272.8889,-35.762"/>
<polygon fill="#00ff00" stroke="#00ff00" stroke-width=".2425" points="275.8574,-37.6191 278.4985,-27.3588 270.0354,-33.7327 275.8574,-37.6191"/>
</g>
<!-- 4&#45;&gt;6 -->
<g id="edge12" class="edge">
<title>4&#45;&gt;6</title>
<path fill="none" stroke="#00ff00" stroke-width=".5355" d="M204.9102,-119.6871C195.5644,-106.1607 176.1723,-80.6087 153.8492,-65.6985 114.2209,-39.2295 97.492,-46.3728 52.8492,-29.6985 48.1216,-27.9327 43.082,-25.9995 38.2703,-24.129"/>
<polygon fill="#00ff00" stroke="#00ff00" stroke-width=".5355" points="39.4742,-20.8417 28.8866,-20.451 36.9197,-27.3589 39.4742,-20.8417"/>
</g>
<!-- 4&#45;&gt;7 -->
<g id="edge23" class="edge">
<title>4&#45;&gt;7</title>
<path fill="none" stroke="#00ff00" stroke-width=".4374" d="M209.5601,-119.4102C207.2491,-105.9898 201.2234,-81.1008 186.8492,-65.6985 163.6128,-40.8 125.7805,-27.0581 101.1018,-20.3189"/>
<polygon fill="#00ff00" stroke="#00ff00" stroke-width=".4374" points="101.9662,-16.9274 91.4114,-17.8473 100.2361,-23.7102 101.9662,-16.9274"/>
</g>
</g>
</svg>
