<?xml version="1.0" encoding="UTF-8" standalone="no"?>
<!DOCTYPE svg PUBLIC "-//W3C//DTD SVG 1.1//EN"
 "http://www.w3.org/Graphics/SVG/1.1/DTD/svg11.dtd">
<!-- Generated by graphviz version 2.40.1 (20161225.0304)
 -->
<!-- Title: %3 Pages: 1 -->
<svg width="324pt" height="280pt"
 viewBox="0.00 0.00 323.63 279.74" xmlns="http://www.w3.org/2000/svg" xmlns:xlink="http://www.w3.org/1999/xlink">
<g id="graph0" class="graph" transform="scale(1 1) rotate(0) translate(4 275.74)">
<title>%3</title>
<polygon fill="#ffffff" stroke="transparent" points="-4,4 -4,-275.74 319.6312,-275.74 319.6312,4 -4,4"/>
<!-- 1 -->
<g id="node1" class="node">
<title>1</title>
<polygon fill="#add8e6" stroke="#000000" points="239.7132,-270.1249 218.7132,-270.1249 218.7132,-252.1249 239.7132,-252.1249 239.7132,-270.1249"/>
<text text-anchor="middle" x="229.2132" y="-258.9249" font-family="Times,serif" font-size="9.00" fill="#000000">1</text>
</g>
<!-- 1&#45;&gt;1 -->
<g id="edge15" class="edge">
<title>1&#45;&gt;1</title>
<path fill="none" stroke="#ff0000" stroke-width=".4382" d="M239.7364,-269.7049C248.5275,-273.3716 257.7132,-270.5116 257.7132,-261.1249 257.7132,-255.5515 254.4749,-252.2791 250.0036,-251.3076"/>
<polygon fill="#ff0000" stroke="#ff0000" stroke-width=".4382" points="249.2458,-247.8735 239.7364,-252.5448 250.0834,-254.8232 249.2458,-247.8735"/>
</g>
<!-- 2 -->
<g id="node2" class="node">
<title>2</title>
<polygon fill="#add8e6" stroke="#000000" points="239.7132,-216.1249 218.7132,-216.1249 218.7132,-198.1249 239.7132,-198.1249 239.7132,-216.1249"/>
<text text-anchor="middle" x="229.2132" y="-204.9249" font-family="Times,serif" font-size="9.00" fill="#000000">2</text>
</g>
<!-- 1&#45;&gt;2 -->
<g id="edge6" class="edge">
<title>1&#45;&gt;2</title>
<path fill="none" stroke="#00ff00" stroke-width=".7531" d="M223.9464,-251.7188C222.5508,-244.7499 222.1401,-235.0112 222.7142,-226.412"/>
<polygon fill="#00ff00" stroke="#00ff00" stroke-width=".7531" points="226.1952,-226.7813 223.9681,-216.4232 219.2497,-225.9094 226.1952,-226.7813"/>
</g>
<!-- 3 -->
<g id="node3" class="node">
<title>3</title>
<polygon fill="#add8e6" stroke="#000000" points="180.7132,-149.9117 159.7132,-149.9117 159.7132,-131.9117 180.7132,-131.9117 180.7132,-149.9117"/>
<text text-anchor="middle" x="170.2132" y="-138.7117" font-family="Times,serif" font-size="9.00" fill="#000000">3</text>
</g>
<!-- 1&#45;&gt;3 -->
<g id="edge18" class="edge">
<title>1&#45;&gt;3</title>
<path fill="none" stroke="#ff0000" stroke-width=".1755" stroke-dasharray="1,5" d="M224.7786,-252.0894C215.1259,-232.4219 192.05,-185.4044 179.2142,-159.2513"/>
<polygon fill="#ff0000" stroke="#ff0000" stroke-width=".1755" points="182.2472,-157.4871 174.6993,-150.0521 175.9632,-160.5712 182.2472,-157.4871"/>
</g>
<!-- 5 -->
<g id="node6" class="node">
<title>5</title>
<ellipse fill="#add8e6" stroke="#000000" cx="300.2132" cy="-14.8492" rx="14.7" ry="14.7"/>
<text text-anchor="middle" x="300.2132" y="-12.6492" font-family="Times,serif" font-size="9.00" fill="#000000">5</text>
</g>
<!-- 1&#45;&gt;5 -->
<g id="edge10" class="edge">
<title>1&#45;&gt;5</title>
<path fill="none" stroke="#ff0000" stroke-width=".1821" d="M239.7976,-257.4774C255.1869,-251.5373 283.2096,-238.1703 295.2132,-216.1249 326.219,-159.1808 314.9174,-79.0844 306.3401,-39.2839"/>
<polygon fill="#ff0000" stroke="#ff0000" stroke-width=".1821" points="309.7221,-38.3721 304.0843,-29.4018 302.8976,-39.93 309.7221,-38.3721"/>
</g>
<!-- 6 -->
<g id="node7" class="node">
<title>6</title>
<ellipse fill="#add8e6" stroke="#000000" cx="223.2132" cy="-14.8492" rx="14.7" ry="14.7"/>
<text text-anchor="middle" x="223.2132" y="-12.6492" font-family="Times,serif" font-size="9.00" fill="#000000">6</text>
</g>
<!-- 1&#45;&gt;6 -->
<g id="edge26" class="edge">
<title>1&#45;&gt;6</title>
<path fill="none" stroke="#ff0000" stroke-width=".6741" d="M240.0191,-255.5513C252.6136,-248.3712 272.776,-234.5841 281.2132,-216.1249 284.5389,-208.8489 281.7702,-206.1055 281.2132,-198.1249 278.7628,-163.0129 279.953,-153.5214 270.2132,-119.6985 261.6355,-89.9113 246.1543,-57.6545 235.3107,-36.9011"/>
<polygon fill="#ff0000" stroke="#ff0000" stroke-width=".6741" points="238.3412,-35.1454 230.5535,-27.9619 232.1617,-38.434 238.3412,-35.1454"/>
</g>
<!-- 789 -->
<g id="node9" class="node">
<title>789</title>
<ellipse fill="#ffffff" stroke="#000000" cx="21.2132" cy="-140.9117" rx="21.4286" ry="21.4286"/>
<text text-anchor="middle" x="21.2132" y="-138.7117" font-family="Times,serif" font-size="9.00" fill="#000000">789</text>
</g>
<!-- 1&#45;&gt;789 -->
<g id="edge5" class="edge">
<title>1&#45;&gt;789</title>
<path fill="none" stroke="#ff0000" stroke-width=".1095" stroke-dasharray="1,5" d="M218.6284,-255.1899C191.5036,-239.9544 117.337,-198.1297 56.2132,-162.1249 53.5443,-160.5528 50.7695,-158.901 48.0021,-157.2422"/>
<polygon fill="#ff0000" stroke="#ff0000" stroke-width=".1095" points="49.6974,-154.1774 39.3269,-152.0087 46.0815,-160.1712 49.6974,-154.1774"/>
</g>
<!-- 2&#45;&gt;1 -->
<g id="edge7" class="edge">
<title>2&#45;&gt;1</title>
<path fill="none" stroke="#ff0000" stroke-width=".1392" d="M234.4583,-216.4232C235.864,-223.3634 236.2849,-233.0935 235.721,-241.7045"/>
<polygon fill="#ff0000" stroke="#ff0000" stroke-width=".1392" points="232.2365,-241.3643 234.48,-251.7188 239.1834,-242.2252 232.2365,-241.3643"/>
</g>
<!-- 2&#45;&gt;2 -->
<g id="edge3" class="edge">
<title>2&#45;&gt;2</title>
<path fill="none" stroke="#00ff00" stroke-width=".3517" d="M239.7364,-215.7049C248.5275,-219.3716 257.7132,-216.5116 257.7132,-207.1249 257.7132,-201.5515 254.4749,-198.2791 250.0036,-197.3076"/>
<polygon fill="#00ff00" stroke="#00ff00" stroke-width=".3517" points="249.2458,-193.8735 239.7364,-198.5448 250.0834,-200.8232 249.2458,-193.8735"/>
</g>
<!-- 2&#45;&gt;3 -->
<g id="edge21" class="edge">
<title>2&#45;&gt;3</title>
<path fill="none" stroke="#00ff00" stroke-width=".1067" stroke-dasharray="1,5" d="M218.5288,-200.0389C207.2938,-190.1868 190.5597,-172.0294 179.7838,-158.425"/>
<polygon fill="#00ff00" stroke="#00ff00" stroke-width=".1067" points="182.4765,-156.1817 173.6806,-150.2755 176.8735,-160.3778 182.4765,-156.1817"/>
</g>
<!-- 4 -->
<g id="node4" class="node">
<title>4</title>
<polygon fill="#add8e6" stroke="#000000" points="233.7132,-83.6985 212.7132,-83.6985 212.7132,-65.6985 233.7132,-65.6985 233.7132,-83.6985"/>
<text text-anchor="middle" x="223.2132" y="-72.4985" font-family="Times,serif" font-size="9.00" fill="#000000">4</text>
</g>
<!-- 2&#45;&gt;4 -->
<g id="edge23" class="edge">
<title>2&#45;&gt;4</title>
<path fill="none" stroke="#00ff00" stroke-width=".2891" stroke-dasharray="1,5" d="M225.1691,-198.0227C220.5342,-176.6655 217.6682,-122.958 219.1568,-93.9687"/>
<polygon fill="#00ff00" stroke="#00ff00" stroke-width=".2891" points="222.6563,-94.1171 219.9859,-83.8644 215.6798,-93.5446 222.6563,-94.1171"/>
</g>
<!-- 0 -->
<g id="node5" class="node">
<title>0</title>
<ellipse fill="#add8e6" stroke="#000000" cx="158.2132" cy="-14.8492" rx="14.7" ry="14.7"/>
<text text-anchor="middle" x="158.2132" y="-12.6492" font-family="Times,serif" font-size="9.00" fill="#000000">0</text>
</g>
<!-- 2&#45;&gt;0 -->
<g id="edge4" class="edge">
<title>2&#45;&gt;0</title>
<path fill="none" stroke="#00ff00" stroke-width=".3075" d="M218.6089,-204.717C200.7404,-200.0232 165.1251,-187.7805 150.2132,-162.1249 127.8828,-123.706 139.5036,-69.6968 149.307,-38.8888"/>
<polygon fill="#00ff00" stroke="#00ff00" stroke-width=".3075" points="152.7553,-39.6171 152.6401,-29.0229 146.1235,-37.3765 152.7553,-39.6171"/>
</g>
<!-- 2&#45;&gt;5 -->
<g id="edge17" class="edge">
<title>2&#45;&gt;5</title>
<path fill="none" stroke="#00ff00" stroke-width=".2619" d="M233.5824,-197.9144C237.7991,-188.8867 244.2556,-174.6902 249.2132,-162.1249 266.1063,-119.3082 283.0677,-68.3649 292.5475,-39.0007"/>
<polygon fill="#00ff00" stroke="#00ff00" stroke-width=".2619" points="295.9652,-39.8049 295.6876,-29.2137 289.2999,-37.6663 295.9652,-39.8049"/>
</g>
<!-- 7 -->
<g id="node8" class="node">
<title>7</title>
<ellipse fill="#add8e6" stroke="#000000" cx="96.2132" cy="-14.8492" rx="14.7" ry="14.7"/>
<text text-anchor="middle" x="96.2132" y="-12.6492" font-family="Times,serif" font-size="9.00" fill="#000000">7</text>
</g>
<!-- 2&#45;&gt;7 -->
<g id="edge12" class="edge">
<title>2&#45;&gt;7</title>
<path fill="none" stroke="#00ff00" stroke-width=".2054" d="M218.5538,-205.1587C198.809,-200.9443 156.5299,-189.1387 134.2132,-162.1249 105.1779,-126.9784 98.0224,-72.2552 96.4409,-40.3449"/>
<polygon fill="#00ff00" stroke="#00ff00" stroke-width=".2054" points="99.9296,-39.9523 96.0873,-30.0787 92.9337,-40.1933 99.9296,-39.9523"/>
</g>
<!-- 3&#45;&gt;2 -->
<g id="edge19" class="edge">
<title>3&#45;&gt;2</title>
<path fill="none" stroke="#ff0000" stroke-width=".197" d="M180.9155,-148.0134C192.1955,-157.9087 209.0069,-176.1604 219.7722,-189.7753"/>
<polygon fill="#ff0000" stroke="#ff0000" stroke-width=".197" points="217.066,-192.001 225.8545,-197.9182 222.6743,-187.8119 217.066,-192.001"/>
</g>
<!-- 3&#45;&gt;3 -->
<g id="edge14" class="edge">
<title>3&#45;&gt;3</title>
<path fill="none" stroke="#ff0000" stroke-width=".4659" d="M178.3824,-149.9966C187.8019,-156.4439 198.7132,-153.4156 198.7132,-140.9117 198.7132,-132.706 194.0141,-128.5811 188.1213,-128.537"/>
<polygon fill="#ff0000" stroke="#ff0000" stroke-width=".4659" points="186.7363,-125.3105 178.3824,-131.8268 188.9766,-131.9424 186.7363,-125.3105"/>
</g>
<!-- 3&#45;&gt;4 -->
<g id="edge24" class="edge">
<title>3&#45;&gt;4</title>
<path fill="none" stroke="#00ff00" stroke-width=".2647" d="M172.7377,-131.705C179.2269,-120.8759 193.4324,-102.7418 205.3226,-89.8353"/>
<polygon fill="#00ff00" stroke="#00ff00" stroke-width=".2647" points="207.8981,-92.2069 212.337,-82.5868 202.8678,-87.339 207.8981,-92.2069"/>
</g>
<!-- 3&#45;&gt;6 -->
<g id="edge1" class="edge">
<title>3&#45;&gt;6</title>
<path fill="none" stroke="#00ff00" stroke-width=".5952" d="M174.0248,-131.8456C182.1845,-112.4374 201.5628,-66.3455 213.4155,-38.1534"/>
<polygon fill="#00ff00" stroke="#00ff00" stroke-width=".5952" points="216.7578,-39.2342 217.4071,-28.6592 210.3049,-36.5211 216.7578,-39.2342"/>
</g>
<!-- 3&#45;&gt;7 -->
<g id="edge16" class="edge">
<title>3&#45;&gt;7</title>
<path fill="none" stroke="#ff0000" stroke-width=".1317" d="M164.8913,-131.8456C153.2795,-112.0643 125.3959,-64.5634 108.9503,-36.5475"/>
<polygon fill="#ff0000" stroke="#ff0000" stroke-width=".1317" points="111.9324,-34.7138 103.8516,-27.8616 105.8956,-38.2575 111.9324,-34.7138"/>
</g>
<!-- 4&#45;&gt;1 -->
<g id="edge22" class="edge">
<title>4&#45;&gt;1</title>
<path fill="none" stroke="#ff0000" stroke-width="1.7227" d="M229.657,-83.9374C235.5331,-92.755 244.0608,-106.5999 249.2132,-119.6985 262.3041,-152.9788 263.1876,-162.5897 267.2132,-198.1249 268.1137,-206.074 269.9611,-208.6116 267.2132,-216.1249 263.1565,-227.2166 255.0252,-237.4598 247.3218,-245.3624"/>
<polygon fill="#ff0000" stroke="#ff0000" stroke-width="1.7227" points="244.7385,-242.9898 239.9277,-252.4294 249.5751,-248.0502 244.7385,-242.9898"/>
</g>
<!-- 4&#45;&gt;2 -->
<g id="edge8" class="edge">
<title>4&#45;&gt;2</title>
<path fill="none" stroke="#ff0000" stroke-width=".529" d="M227.2711,-83.8644C231.9025,-105.2858 234.7624,-159.0008 233.2651,-187.941"/>
<polygon fill="#ff0000" stroke="#ff0000" stroke-width=".529" points="229.7675,-187.7685 232.4325,-198.0227 236.7438,-188.3447 229.7675,-187.7685"/>
</g>
<!-- 4&#45;&gt;3 -->
<g id="edge20" class="edge">
<title>4&#45;&gt;3</title>
<path fill="none" stroke="#ff0000" stroke-width=".2212" stroke-dasharray="1,5" d="M220.694,-83.8964C214.1557,-94.8105 199.7711,-113.1534 187.821,-126.0813"/>
<polygon fill="#ff0000" stroke="#ff0000" stroke-width=".2212" points="185.2484,-123.7065 180.7869,-133.3162 190.2673,-128.5861 185.2484,-123.7065"/>
</g>
<!-- 4&#45;&gt;0 -->
<g id="edge11" class="edge">
<title>4&#45;&gt;0</title>
<path fill="none" stroke="#ff0000" stroke-width="1.0235" d="M213.3411,-65.6087C203.761,-56.7877 188.9733,-43.1719 177.1246,-32.262"/>
<polygon fill="#ff0000" stroke="#ff0000" stroke-width="1.0235" points="179.2186,-29.4324 169.4913,-25.2336 174.4771,-34.582 179.2186,-29.4324"/>
</g>
<!-- 4&#45;&gt;5 -->
<g id="edge2" class="edge">
<title>4&#45;&gt;5</title>
<path fill="none" stroke="#ff0000" stroke-width=".1186" stroke-dasharray="1,5" d="M233.9197,-66.3767C245.8718,-57.0868 265.476,-41.8491 280.2726,-30.3483"/>
<polygon fill="#ff0000" stroke="#ff0000" stroke-width=".1186" points="282.5873,-32.9821 288.3349,-24.0818 278.2915,-27.4553 282.5873,-32.9821"/>
</g>
<!-- 4&#45;&gt;6 -->
<g id="edge13" class="edge">
<title>4&#45;&gt;6</title>
<path fill="none" stroke="#ff0000" stroke-width=".2771" d="M223.2132,-65.6087C223.2132,-58.8397 223.2132,-49.2471 223.2132,-40.2205"/>
<polygon fill="#ff0000" stroke="#ff0000" stroke-width=".2771" points="226.7133,-40.0872 223.2132,-30.0872 219.7133,-40.0872 226.7133,-40.0872"/>
</g>
<!-- 4&#45;&gt;7 -->
<g id="edge9" class="edge">
<title>4&#45;&gt;7</title>
<path fill="none" stroke="#ff0000" stroke-width=".2958" stroke-dasharray="1,5" d="M212.3853,-69.5958C191.7636,-59.8778 146.4595,-38.528 118.9159,-25.548"/>
<polygon fill="#ff0000" stroke="#ff0000" stroke-width=".2958" points="120.1884,-22.2785 109.6505,-21.1816 117.2043,-28.6106 120.1884,-22.2785"/>
</g>
<!-- 789&#45;&gt;7 -->
<g id="edge25" class="edge">
<title>789&#45;&gt;7</title>
<path fill="none" stroke="#00ff00" stroke-width=".4236" d="M28.948,-121.1085C35.368,-105.5578 45.2037,-83.6135 56.2132,-65.6985 63.057,-54.562 71.9446,-43.0425 79.6036,-33.7896"/>
<polygon fill="#00ff00" stroke="#00ff00" stroke-width=".4236" points="82.4048,-35.8977 86.1981,-26.0052 77.0636,-31.373 82.4048,-35.8977"/>
</g>
</g>
</svg>
