<?xml version="1.0" encoding="UTF-8" standalone="no"?>
<!DOCTYPE svg PUBLIC "-//W3C//DTD SVG 1.1//EN"
 "http://www.w3.org/Graphics/SVG/1.1/DTD/svg11.dtd">
<!-- Generated by graphviz version 2.40.1 (20161225.0304)
 -->
<!-- Title: %3 Pages: 1 -->
<svg width="363pt" height="280pt"
 viewBox="0.00 0.00 363.35 279.74" xmlns="http://www.w3.org/2000/svg" xmlns:xlink="http://www.w3.org/1999/xlink">
<g id="graph0" class="graph" transform="scale(1 1) rotate(0) translate(4 275.74)">
<title>%3</title>
<polygon fill="#ffffff" stroke="transparent" points="-4,4 -4,-275.74 359.3478,-275.74 359.3478,4 -4,4"/>
<!-- 1 -->
<g id="node1" class="node">
<title>1</title>
<polygon fill="#add8e6" stroke="#000000" points="263.0331,-270.1249 242.0331,-270.1249 242.0331,-252.1249 263.0331,-252.1249 263.0331,-270.1249"/>
<text text-anchor="middle" x="252.5331" y="-258.9249" font-family="Times,serif" font-size="9.00" fill="#000000">1</text>
</g>
<!-- 1&#45;&gt;1 -->
<g id="edge15" class="edge">
<title>1&#45;&gt;1</title>
<path fill="none" stroke="#ff0000" stroke-width=".7512" d="M263.0564,-269.7049C271.8474,-273.3716 281.0331,-270.5116 281.0331,-261.1249 281.0331,-255.5515 277.7948,-252.2791 273.3235,-251.3076"/>
<polygon fill="#ff0000" stroke="#ff0000" stroke-width=".7512" points="272.5657,-247.8735 263.0564,-252.5448 273.4033,-254.8232 272.5657,-247.8735"/>
</g>
<!-- 2 -->
<g id="node2" class="node">
<title>2</title>
<polygon fill="#add8e6" stroke="#000000" points="159.0331,-216.1249 138.0331,-216.1249 138.0331,-198.1249 159.0331,-198.1249 159.0331,-216.1249"/>
<text text-anchor="middle" x="148.5331" y="-204.9249" font-family="Times,serif" font-size="9.00" fill="#000000">2</text>
</g>
<!-- 1&#45;&gt;2 -->
<g id="edge3" class="edge">
<title>1&#45;&gt;2</title>
<path fill="none" stroke="#00ff00" stroke-width=".3656" d="M241.7531,-257.4133C224.1177,-249.8993 189.9778,-232.5655 168.1187,-220.3579"/>
<polygon fill="#00ff00" stroke="#00ff00" stroke-width=".3656" points="169.7329,-217.2491 159.3145,-215.3236 166.2581,-223.3259 169.7329,-217.2491"/>
</g>
<!-- 4 -->
<g id="node4" class="node">
<title>4</title>
<polygon fill="#add8e6" stroke="#000000" points="243.0331,-102.2756 222.0331,-102.2756 222.0331,-84.2756 243.0331,-84.2756 243.0331,-102.2756"/>
<text text-anchor="middle" x="232.5331" y="-91.0756" font-family="Times,serif" font-size="9.00" fill="#000000">4</text>
</g>
<!-- 1&#45;&gt;4 -->
<g id="edge25" class="edge">
<title>1&#45;&gt;4</title>
<path fill="none" stroke="#ff0000" stroke-width=".2111" d="M248.1949,-252.1006C240.8681,-225.8026 231.2828,-148.8108 230.3343,-112.565"/>
<polygon fill="#ff0000" stroke="#ff0000" stroke-width=".2111" points="233.8344,-112.3478 230.3437,-102.3446 226.8344,-112.3413 233.8344,-112.3478"/>
</g>
<!-- 0 -->
<g id="node5" class="node">
<title>0</title>
<ellipse fill="#add8e6" stroke="#000000" cx="36.5331" cy="-93.2756" rx="14.7" ry="14.7"/>
<text text-anchor="middle" x="36.5331" y="-91.0756" font-family="Times,serif" font-size="9.00" fill="#000000">0</text>
</g>
<!-- 1&#45;&gt;0 -->
<g id="edge13" class="edge">
<title>1&#45;&gt;0</title>
<path fill="none" stroke="#ff0000" stroke-width=".6642" d="M241.9617,-258.8962C219.7758,-253.8813 167.2926,-240.2244 129.5331,-216.1249 90.6037,-191.2786 61.8848,-144.0721 47.3099,-115.9648"/>
<polygon fill="#ff0000" stroke="#ff0000" stroke-width=".6642" points="50.3668,-114.2528 42.7509,-106.8873 44.1114,-117.3945 50.3668,-114.2528"/>
</g>
<!-- 5 -->
<g id="node6" class="node">
<title>5</title>
<ellipse fill="#add8e6" stroke="#000000" cx="36.5331" cy="-21.2132" rx="14.7" ry="14.7"/>
<text text-anchor="middle" x="36.5331" y="-19.0132" font-family="Times,serif" font-size="9.00" fill="#000000">5</text>
</g>
<!-- 1&#45;&gt;5 -->
<g id="edge10" class="edge">
<title>1&#45;&gt;5</title>
<path fill="none" stroke="#ff0000" stroke-width=".3933" d="M241.9082,-259.3188C216.7431,-254.7495 151.9827,-241.2667 103.5331,-216.1249 68.9684,-198.1883 60.0328,-191.5563 34.5331,-162.1249 8.5572,-132.1438 -6.7259,-116.7457 3.5331,-78.4264 7.0653,-65.2332 14.4544,-51.9314 21.3467,-41.4782"/>
<polygon fill="#ff0000" stroke="#ff0000" stroke-width=".3933" points="24.3362,-43.3095 27.1663,-33.0996 18.5869,-39.3162 24.3362,-43.3095"/>
</g>
<!-- 6 -->
<g id="node7" class="node">
<title>6</title>
<ellipse fill="#add8e6" stroke="#000000" cx="169.5331" cy="-21.2132" rx="14.7" ry="14.7"/>
<text text-anchor="middle" x="169.5331" y="-19.0132" font-family="Times,serif" font-size="9.00" fill="#000000">6</text>
</g>
<!-- 1&#45;&gt;6 -->
<g id="edge28" class="edge">
<title>1&#45;&gt;6</title>
<path fill="none" stroke="#00ff00" stroke-width=".4162" d="M256.9609,-251.9624C269.8846,-223.7866 304.5572,-136.8037 270.5331,-78.4264 269.4057,-76.492 221.1452,-49.6578 191.752,-33.4364"/>
<polygon fill="#00ff00" stroke="#00ff00" stroke-width=".4162" points="193.4026,-30.3498 182.9553,-28.5876 190.0235,-36.4802 193.4026,-30.3498"/>
</g>
<!-- 7 -->
<g id="node8" class="node">
<title>7</title>
<ellipse fill="#add8e6" stroke="#000000" cx="232.5331" cy="-21.2132" rx="14.7" ry="14.7"/>
<text text-anchor="middle" x="232.5331" y="-19.0132" font-family="Times,serif" font-size="9.00" fill="#000000">7</text>
</g>
<!-- 1&#45;&gt;7 -->
<g id="edge20" class="edge">
<title>1&#45;&gt;7</title>
<path fill="none" stroke="#ff0000" stroke-width=".4464" d="M263.1303,-256.9615C277.6078,-250.6228 302.9743,-237.0353 313.5331,-216.1249 341.1187,-161.4953 341.6805,-132.7687 313.5331,-78.4264 301.5305,-55.2536 275.344,-39.4641 255.9783,-30.4385"/>
<polygon fill="#ff0000" stroke="#ff0000" stroke-width=".4464" points="257.1489,-27.1305 246.5842,-26.332 254.3451,-33.5444 257.1489,-27.1305"/>
</g>
<!-- 2&#45;&gt;1 -->
<g id="edge7" class="edge">
<title>2&#45;&gt;1</title>
<path fill="none" stroke="#00ff00" stroke-width=".2296" d="M159.1979,-210.7875C176.7932,-218.2721 211.0162,-235.6452 232.9241,-247.8788"/>
<polygon fill="#00ff00" stroke="#00ff00" stroke-width=".2296" points="231.3286,-250.9983 241.7471,-252.9235 234.8032,-244.9214 231.3286,-250.9983"/>
</g>
<!-- 2&#45;&gt;2 -->
<g id="edge6" class="edge">
<title>2&#45;&gt;2</title>
<path fill="none" stroke="#00ff00" stroke-width=".3499" stroke-dasharray="1,5" d="M159.0564,-215.7049C167.8474,-219.3716 177.0331,-216.5116 177.0331,-207.1249 177.0331,-201.5515 173.7948,-198.2791 169.3235,-197.3076"/>
<polygon fill="#00ff00" stroke="#00ff00" stroke-width=".3499" points="168.5657,-193.8735 159.0564,-198.5448 169.4033,-200.8232 168.5657,-193.8735"/>
</g>
<!-- 3 -->
<g id="node3" class="node">
<title>3</title>
<polygon fill="#add8e6" stroke="#000000" points="159.0331,-162.1249 138.0331,-162.1249 138.0331,-144.1249 159.0331,-144.1249 159.0331,-162.1249"/>
<text text-anchor="middle" x="148.5331" y="-150.9249" font-family="Times,serif" font-size="9.00" fill="#000000">3</text>
</g>
<!-- 2&#45;&gt;3 -->
<g id="edge19" class="edge">
<title>2&#45;&gt;3</title>
<path fill="none" stroke="#00ff00" stroke-width=".365" d="M143.2663,-197.7188C141.8707,-190.7499 141.46,-181.0112 142.0341,-172.412"/>
<polygon fill="#00ff00" stroke="#00ff00" stroke-width=".365" points="145.5151,-172.7813 143.288,-162.4232 138.5696,-171.9094 145.5151,-172.7813"/>
</g>
<!-- 2&#45;&gt;4 -->
<g id="edge26" class="edge">
<title>2&#45;&gt;4</title>
<path fill="none" stroke="#ff0000" stroke-width=".2154" d="M156.7048,-198.0655C164.6203,-189.1498 176.8183,-175.0339 186.5331,-162.1249 199.175,-145.3263 212.3856,-125.251 221.3892,-111.1255"/>
<polygon fill="#ff0000" stroke="#ff0000" stroke-width=".2154" points="224.5125,-112.7345 226.8916,-102.4102 218.5935,-108.9975 224.5125,-112.7345"/>
</g>
<!-- 2&#45;&gt;0 -->
<g id="edge4" class="edge">
<title>2&#45;&gt;0</title>
<path fill="none" stroke="#ff0000" stroke-width=".2281" d="M137.9489,-198.9589C126.9345,-190.2763 109.3917,-175.9204 95.5331,-162.1249 80.0119,-146.6744 63.9356,-127.683 52.4915,-113.5625"/>
<polygon fill="#ff0000" stroke="#ff0000" stroke-width=".2281" points="54.9956,-111.0902 46.011,-105.4752 49.533,-115.4675 54.9956,-111.0902"/>
</g>
<!-- 2&#45;&gt;5 -->
<g id="edge17" class="edge">
<title>2&#45;&gt;5</title>
<path fill="none" stroke="#ff0000" stroke-width=".129" d="M137.8726,-203.5255C110.4159,-193.58 37.6718,-162.7819 12.5331,-108.1249 2.7094,-86.766 12.6726,-60.555 22.5871,-42.5363"/>
<polygon fill="#ff0000" stroke="#ff0000" stroke-width=".129" points="25.8826,-43.84 27.9642,-33.4516 19.8587,-40.2745 25.8826,-43.84"/>
</g>
<!-- 2&#45;&gt;6 -->
<g id="edge29" class="edge">
<title>2&#45;&gt;6</title>
<path fill="none" stroke="#00ff00" stroke-width=".4365" d="M143.3023,-197.8254C138.6394,-188.965 132.1582,-175.0911 129.5331,-162.1249 127.9457,-154.284 128.2798,-152.0261 129.5331,-144.1249 135.2241,-108.2481 149.7113,-68.5985 159.5952,-44.2922"/>
<polygon fill="#00ff00" stroke="#00ff00" stroke-width=".4365" points="162.9051,-45.4479 163.5103,-34.8704 156.4409,-42.7618 162.9051,-45.4479"/>
</g>
<!-- 3&#45;&gt;2 -->
<g id="edge23" class="edge">
<title>3&#45;&gt;2</title>
<path fill="none" stroke="#00ff00" stroke-width=".1721" d="M153.7783,-162.4232C155.184,-169.3634 155.6049,-179.0935 155.0409,-187.7045"/>
<polygon fill="#00ff00" stroke="#00ff00" stroke-width=".1721" points="151.5564,-187.3643 153.8,-197.7188 158.5033,-188.2252 151.5564,-187.3643"/>
</g>
<!-- 3&#45;&gt;3 -->
<g id="edge11" class="edge">
<title>3&#45;&gt;3</title>
<path fill="none" stroke="#00ff00" stroke-width=".2028" d="M159.0564,-161.7049C167.8474,-165.3716 177.0331,-162.5116 177.0331,-153.1249 177.0331,-147.5515 173.7948,-144.2791 169.3235,-143.3076"/>
<polygon fill="#00ff00" stroke="#00ff00" stroke-width=".2028" points="168.5657,-139.8735 159.0564,-144.5448 169.4033,-146.8232 168.5657,-139.8735"/>
</g>
<!-- 3&#45;&gt;4 -->
<g id="edge27" class="edge">
<title>3&#45;&gt;4</title>
<path fill="none" stroke="#00ff00" stroke-width=".5246" d="M156.2816,-144.0351C169.4225,-133.0636 195.1713,-114.6741 213.2703,-103.3002"/>
<polygon fill="#00ff00" stroke="#00ff00" stroke-width=".5246" points="215.181,-106.2351 221.9304,-98.0683 211.5613,-100.2436 215.181,-106.2351"/>
</g>
<!-- 3&#45;&gt;0 -->
<g id="edge21" class="edge">
<title>3&#45;&gt;0</title>
<path fill="none" stroke="#00ff00" stroke-width=".1983" d="M137.7941,-147.3863C119.7005,-137.7176 82.7783,-117.9876 58.8711,-105.2123"/>
<polygon fill="#00ff00" stroke="#00ff00" stroke-width=".1983" points="60.2832,-101.9986 49.8139,-100.3725 56.9841,-108.1724 60.2832,-101.9986"/>
</g>
<!-- 3&#45;&gt;5 -->
<g id="edge12" class="edge">
<title>3&#45;&gt;5</title>
<path fill="none" stroke="#00ff00" stroke-width=".4957" d="M140.8349,-144.0581C122.7523,-122.7607 77.2496,-69.1684 52.7508,-40.3141"/>
<polygon fill="#00ff00" stroke="#00ff00" stroke-width=".4957" points="55.2967,-37.905 46.1564,-32.5473 49.9606,-42.4356 55.2967,-37.905"/>
</g>
<!-- 3&#45;&gt;6 -->
<g id="edge1" class="edge">
<title>3&#45;&gt;6</title>
<path fill="none" stroke="#00ff00" stroke-width=".1259" d="M149.9765,-144.0581C153.1457,-124.1509 160.8069,-76.0272 165.545,-46.2648"/>
<polygon fill="#00ff00" stroke="#00ff00" stroke-width=".1259" points="169.0288,-46.6427 167.1446,-36.2167 162.1159,-45.5421 169.0288,-46.6427"/>
</g>
<!-- 3&#45;&gt;7 -->
<g id="edge16" class="edge">
<title>3&#45;&gt;7</title>
<path fill="none" stroke="#ff0000" stroke-width=".549" d="M154.3068,-144.0581C167.4847,-123.3637 200.0797,-72.1773 218.7721,-42.8232"/>
<polygon fill="#ff0000" stroke="#ff0000" stroke-width=".549" points="221.8912,-44.4411 224.3103,-34.1261 215.9867,-40.6812 221.8912,-44.4411"/>
</g>
<!-- 4&#45;&gt;1 -->
<g id="edge14" class="edge">
<title>4&#45;&gt;1</title>
<path fill="none" stroke="#ff0000" stroke-width=".3601" stroke-dasharray="1,5" d="M236.8838,-102.3446C244.2131,-128.6998 253.7948,-205.6972 254.7335,-241.8969"/>
<polygon fill="#ff0000" stroke="#ff0000" stroke-width=".3601" points="251.2334,-242.0962 254.7208,-252.1006 258.2334,-242.105 251.2334,-242.0962"/>
</g>
<!-- 4&#45;&gt;3 -->
<g id="edge9" class="edge">
<title>4&#45;&gt;3</title>
<path fill="none" stroke="#00ff00" stroke-width=".3102" d="M224.6393,-102.4867C211.4937,-113.4395 185.9802,-131.6599 167.9564,-142.9994"/>
<polygon fill="#00ff00" stroke="#00ff00" stroke-width=".3102" points="166.0618,-140.0549 159.319,-148.2272 169.6864,-146.0435 166.0618,-140.0549"/>
</g>
<!-- 4&#45;&gt;4 -->
<g id="edge8" class="edge">
<title>4&#45;&gt;4</title>
<path fill="none" stroke="#00ff00" stroke-width=".2227" d="M242.7602,-102.3558C251.6398,-106.4977 261.0331,-103.471 261.0331,-93.2756 261.0331,-87.0629 257.545,-83.5121 252.8106,-82.6232"/>
<polygon fill="#00ff00" stroke="#00ff00" stroke-width=".2227" points="252.0991,-79.1919 242.7602,-84.1954 253.181,-86.1078 252.0991,-79.1919"/>
</g>
<!-- 4&#45;&gt;5 -->
<g id="edge2" class="edge">
<title>4&#45;&gt;5</title>
<path fill="none" stroke="#00ff00" stroke-width=".2726" d="M221.9953,-89.4013C191.584,-78.2201 103.1172,-45.6939 60.2999,-29.9514"/>
<polygon fill="#00ff00" stroke="#00ff00" stroke-width=".2726" points="61.2915,-26.587 50.6979,-26.4211 58.8759,-33.157 61.2915,-26.587"/>
</g>
<!-- 4&#45;&gt;6 -->
<g id="edge22" class="edge">
<title>4&#45;&gt;6</title>
<path fill="none" stroke="#ff0000" stroke-width=".2593" d="M224.5541,-84.1489C215.0329,-73.258 198.8506,-54.748 186.493,-40.6128"/>
<polygon fill="#ff0000" stroke="#ff0000" stroke-width=".2593" points="188.9552,-38.1114 179.7383,-32.8864 183.6852,-42.7187 188.9552,-38.1114"/>
</g>
<!-- 4&#45;&gt;7 -->
<g id="edge5" class="edge">
<title>4&#45;&gt;7</title>
<path fill="none" stroke="#ff0000" stroke-width=".5378" d="M232.5331,-84.1489C232.5331,-74.7398 232.5331,-59.6438 232.5331,-46.5951"/>
<polygon fill="#ff0000" stroke="#ff0000" stroke-width=".5378" points="236.0332,-46.2855 232.5331,-36.2856 229.0332,-46.2856 236.0332,-46.2855"/>
</g>
<!-- 922 -->
<g id="node9" class="node">
<title>922</title>
<ellipse fill="#ffffff" stroke="#000000" cx="330.5331" cy="-21.2132" rx="21.4286" ry="21.4286"/>
<text text-anchor="middle" x="330.5331" y="-19.0132" font-family="Times,serif" font-size="9.00" fill="#000000">922</text>
</g>
<!-- 4&#45;&gt;922 -->
<g id="edge24" class="edge">
<title>4&#45;&gt;922</title>
<path fill="none" stroke="#00ff00" stroke-width=".2502" d="M243.3953,-85.2884C258.2212,-74.3864 285.2376,-54.5204 305.2723,-39.7883"/>
<polygon fill="#00ff00" stroke="#00ff00" stroke-width=".2502" points="307.3923,-42.5738 313.3752,-33.8299 303.2454,-36.9343 307.3923,-42.5738"/>
</g>
<!-- 922&#45;&gt;1 -->
<g id="edge18" class="edge">
<title>922&#45;&gt;1</title>
<path fill="none" stroke="#ff0000" stroke-width=".3459" d="M337.9586,-41.2199C350.8295,-79.7174 372.2221,-164.8228 331.5331,-216.1249 316.3645,-235.25 290.6929,-247.6902 272.7434,-254.5428"/>
<polygon fill="#ff0000" stroke="#ff0000" stroke-width=".3459" points="271.4511,-251.2877 263.2052,-257.9402 273.7998,-257.8819 271.4511,-251.2877"/>
</g>
</g>
</svg>
