<?xml version="1.0" encoding="UTF-8" standalone="no"?>
<!DOCTYPE svg PUBLIC "-//W3C//DTD SVG 1.1//EN"
 "http://www.w3.org/Graphics/SVG/1.1/DTD/svg11.dtd">
<!-- Generated by graphviz version 2.40.1 (20161225.0304)
 -->
<!-- Title: %3 Pages: 1 -->
<svg width="201pt" height="436pt"
 viewBox="0.00 0.00 200.60 436.39" xmlns="http://www.w3.org/2000/svg" xmlns:xlink="http://www.w3.org/1999/xlink">
<g id="graph0" class="graph" transform="scale(1 1) rotate(0) translate(4 432.3919)">
<title>%3</title>
<polygon fill="#ffffff" stroke="transparent" points="-4,4 -4,-432.3919 196.598,-432.3919 196.598,4 -4,4"/>
<!-- 1 -->
<g id="node1" class="node">
<title>1</title>
<polygon fill="#add8e6" stroke="#000000" points="92.2487,-428.3919 71.2487,-428.3919 71.2487,-410.3919 92.2487,-410.3919 92.2487,-428.3919"/>
<text text-anchor="middle" x="81.7487" y="-417.1919" font-family="Times,serif" font-size="9.00" fill="#000000">1</text>
</g>
<!-- 3 -->
<g id="node3" class="node">
<title>3</title>
<polygon fill="#add8e6" stroke="#000000" points="35.2487,-288.8944 14.2487,-288.8944 14.2487,-270.8944 35.2487,-270.8944 35.2487,-288.8944"/>
<text text-anchor="middle" x="24.7487" y="-277.6944" font-family="Times,serif" font-size="9.00" fill="#000000">3</text>
</g>
<!-- 1&#45;&gt;3 -->
<g id="edge2" class="edge">
<title>1&#45;&gt;3</title>
<path fill="none" stroke="#00ff00" stroke-width=".1247" d="M71.0168,-414.3217C60.3488,-406.445 46.3861,-390.4934 38.7487,-374.3919 27.0742,-349.7791 20.9797,-318.6572 20.3215,-299.006"/>
<polygon fill="#00ff00" stroke="#00ff00" stroke-width=".1247" points="23.8231,-298.9773 20.5611,-288.8971 16.825,-298.8114 23.8231,-298.9773"/>
</g>
<!-- 6 -->
<g id="node7" class="node">
<title>6</title>
<ellipse fill="#add8e6" stroke="#000000" cx="130.7487" cy="-80.5477" rx="14.7" ry="14.7"/>
<text text-anchor="middle" x="130.7487" y="-78.3477" font-family="Times,serif" font-size="9.00" fill="#000000">6</text>
</g>
<!-- 1&#45;&gt;6 -->
<g id="edge3" class="edge">
<title>1&#45;&gt;6</title>
<path fill="none" stroke="#ff0000" stroke-width=".1603" stroke-dasharray="1,5" d="M90.694,-410.2025C98.5152,-401.6349 109.5624,-388.1438 115.7487,-374.3919 133.3238,-335.3236 134.7487,-322.7338 134.7487,-279.8944 134.7487,-279.8944 134.7487,-279.8944 134.7487,-210.1457 134.7487,-173.904 133.1666,-131.9886 131.9924,-105.8703"/>
<polygon fill="#ff0000" stroke="#ff0000" stroke-width=".1603" points="135.4806,-105.5332 131.52,-95.7066 128.4882,-105.8583 135.4806,-105.5332"/>
</g>
<!-- 7 -->
<g id="node8" class="node">
<title>7</title>
<ellipse fill="#add8e6" stroke="#000000" cx="177.7487" cy="-349.6432" rx="14.7" ry="14.7"/>
<text text-anchor="middle" x="177.7487" y="-347.4432" font-family="Times,serif" font-size="9.00" fill="#000000">7</text>
</g>
<!-- 1&#45;&gt;7 -->
<g id="edge16" class="edge">
<title>1&#45;&gt;7</title>
<path fill="none" stroke="#ff0000" stroke-width=".2807" d="M92.4536,-412.7411C105.9029,-404.2641 129.5473,-388.9572 148.7487,-374.3919 152.094,-371.8543 155.5622,-369.0547 158.8868,-366.2786"/>
<polygon fill="#ff0000" stroke="#ff0000" stroke-width=".2807" points="161.3816,-368.7503 166.704,-359.5894 156.8305,-363.4317 161.3816,-368.7503"/>
</g>
<!-- 2685 -->
<g id="node10" class="node">
<title>2685</title>
<ellipse fill="#ffffff" stroke="#000000" cx="81.7487" cy="-349.6432" rx="25" ry="25"/>
<text text-anchor="middle" x="81.7487" y="-347.4432" font-family="Times,serif" font-size="9.00" fill="#000000">2685</text>
</g>
<!-- 1&#45;&gt;2685 -->
<g id="edge9" class="edge">
<title>1&#45;&gt;2685</title>
<path fill="none" stroke="#00ff00" stroke-width=".3046" d="M81.7487,-410.2735C81.7487,-403.6568 81.7487,-394.2453 81.7487,-384.8056"/>
<polygon fill="#00ff00" stroke="#00ff00" stroke-width=".3046" points="85.2488,-384.6824 81.7487,-374.6824 78.2488,-384.6825 85.2488,-384.6824"/>
</g>
<!-- 2 -->
<g id="node2" class="node">
<title>2</title>
<polygon fill="#add8e6" stroke="#000000" points="88.2487,-149.397 67.2487,-149.397 67.2487,-131.397 88.2487,-131.397 88.2487,-149.397"/>
<text text-anchor="middle" x="77.7487" y="-138.197" font-family="Times,serif" font-size="9.00" fill="#000000">2</text>
</g>
<!-- 2&#45;&gt;3 -->
<g id="edge6" class="edge">
<title>2&#45;&gt;3</title>
<path fill="none" stroke="#00ff00" stroke-width=".2275" stroke-dasharray="1,5" d="M77.2704,-149.3977C76.0693,-166.6877 71.9987,-205.4406 58.7487,-234.8944 54.2057,-244.9935 47.041,-254.9519 40.4578,-262.923"/>
<polygon fill="#00ff00" stroke="#00ff00" stroke-width=".2275" points="37.6124,-260.8614 33.694,-270.705 42.8957,-265.4534 37.6124,-260.8614"/>
</g>
<!-- 4 -->
<g id="node4" class="node">
<title>4</title>
<polygon fill="#add8e6" stroke="#000000" points="50.2487,-89.5477 29.2487,-89.5477 29.2487,-71.5477 50.2487,-71.5477 50.2487,-89.5477"/>
<text text-anchor="middle" x="39.7487" y="-78.3477" font-family="Times,serif" font-size="9.00" fill="#000000">4</text>
</g>
<!-- 2&#45;&gt;4 -->
<g id="edge13" class="edge">
<title>2&#45;&gt;4</title>
<path fill="none" stroke="#00ff00" stroke-width=".1851" stroke-dasharray="1,5" d="M67.1863,-131.566C59.9399,-123.0022 51.0836,-109.7488 45.1195,-98.8967"/>
<polygon fill="#00ff00" stroke="#00ff00" stroke-width=".1851" points="48.1815,-97.1939 40.5846,-89.8089 41.918,-100.3195 48.1815,-97.1939"/>
</g>
<!-- 0 -->
<g id="node5" class="node">
<title>0</title>
<ellipse fill="#add8e6" stroke="#000000" cx="70.7487" cy="-14.8492" rx="14.7" ry="14.7"/>
<text text-anchor="middle" x="70.7487" y="-12.6492" font-family="Times,serif" font-size="9.00" fill="#000000">0</text>
</g>
<!-- 2&#45;&gt;0 -->
<g id="edge4" class="edge">
<title>2&#45;&gt;0</title>
<path fill="none" stroke="#00ff00" stroke-width="2.1831" d="M77.2453,-131.3679C76.1937,-112.5063 73.7311,-68.3396 72.158,-40.1255"/>
<polygon fill="#00ff00" stroke="#00ff00" stroke-width="2.1831" points="75.6353,-39.6193 71.584,-29.8296 68.6462,-40.009 75.6353,-39.6193"/>
</g>
<!-- 2&#45;&gt;6 -->
<g id="edge11" class="edge">
<title>2&#45;&gt;6</title>
<path fill="none" stroke="#00ff00" stroke-width=".1836" d="M85.7983,-131.3072C93.2749,-122.8643 104.6415,-110.0288 114.0736,-99.3778"/>
<polygon fill="#00ff00" stroke="#00ff00" stroke-width=".1836" points="116.8034,-101.5745 120.8129,-91.7676 111.5629,-96.9337 116.8034,-101.5745"/>
</g>
<!-- 3&#45;&gt;1 -->
<g id="edge10" class="edge">
<title>3&#45;&gt;1</title>
<path fill="none" stroke="#00ff00" stroke-width=".5209" d="M30.848,-288.8971C36.8024,-306.1903 42.783,-344.9486 56.7487,-374.3919 61.3936,-384.1844 68.378,-393.9215 74.083,-401.8204"/>
<polygon fill="#00ff00" stroke="#00ff00" stroke-width=".5209" points="71.3402,-404.0035 79.9757,-410.1418 77.0529,-399.9581 71.3402,-404.0035"/>
</g>
<!-- 2213 -->
<g id="node9" class="node">
<title>2213</title>
<ellipse fill="#ffffff" stroke="#000000" cx="24.7487" cy="-210.1457" rx="25" ry="25"/>
<text text-anchor="middle" x="24.7487" y="-207.9457" font-family="Times,serif" font-size="9.00" fill="#000000">2213</text>
</g>
<!-- 3&#45;&gt;2213 -->
<g id="edge15" class="edge">
<title>3&#45;&gt;2213</title>
<path fill="none" stroke="#00ff00" stroke-width=".5701" d="M24.7487,-270.776C24.7487,-264.1593 24.7487,-254.7478 24.7487,-245.3081"/>
<polygon fill="#00ff00" stroke="#00ff00" stroke-width=".5701" points="28.2488,-245.1849 24.7487,-235.185 21.2488,-245.185 28.2488,-245.1849"/>
</g>
<!-- 4&#45;&gt;2 -->
<g id="edge5" class="edge">
<title>4&#45;&gt;2</title>
<path fill="none" stroke="#00ff00" stroke-width=".1733" d="M50.272,-89.3325C57.5591,-97.9342 66.4849,-111.2987 72.4603,-122.198"/>
<polygon fill="#00ff00" stroke="#00ff00" stroke-width=".1733" points="69.4023,-123.9094 76.9867,-131.3072 75.671,-120.7943 69.4023,-123.9094"/>
</g>
<!-- 4&#45;&gt;0 -->
<g id="edge12" class="edge">
<title>4&#45;&gt;0</title>
<path fill="none" stroke="#00ff00" stroke-width=".3626" d="M44.0592,-71.4126C48.1663,-62.7083 54.5179,-49.2473 59.9946,-37.6405"/>
<polygon fill="#00ff00" stroke="#00ff00" stroke-width=".3626" points="63.2188,-39.0094 64.3208,-28.472 56.8881,-36.0222 63.2188,-39.0094"/>
</g>
<!-- 5 -->
<g id="node6" class="node">
<title>5</title>
<ellipse fill="#add8e6" stroke="#000000" cx="15.7487" cy="-14.8492" rx="14.7" ry="14.7"/>
<text text-anchor="middle" x="15.7487" y="-12.6492" font-family="Times,serif" font-size="9.00" fill="#000000">5</text>
</g>
<!-- 4&#45;&gt;5 -->
<g id="edge1" class="edge">
<title>4&#45;&gt;5</title>
<path fill="none" stroke="#ff0000" stroke-width=".2964" stroke-dasharray="1,5" d="M36.4116,-71.4126C33.3035,-62.9044 28.5352,-49.8515 24.3621,-38.4278"/>
<polygon fill="#ff0000" stroke="#ff0000" stroke-width=".2964" points="27.6236,-37.1553 20.9047,-28.9634 21.0485,-39.5572 27.6236,-37.1553"/>
</g>
<!-- 4&#45;&gt;2213 -->
<g id="edge14" class="edge">
<title>4&#45;&gt;2213</title>
<path fill="none" stroke="#ff0000" stroke-width=".2638" d="M38.6796,-89.7853C36.6448,-107.3656 32.1203,-146.4561 28.777,-175.3424"/>
<polygon fill="#ff0000" stroke="#ff0000" stroke-width=".2638" points="25.2785,-175.1281 27.6054,-185.4643 32.2321,-175.933 25.2785,-175.1281"/>
</g>
<!-- 2213&#45;&gt;2 -->
<g id="edge7" class="edge">
<title>2213&#45;&gt;2</title>
<path fill="none" stroke="#00ff00" stroke-width=".596" d="M39.7946,-190.3451C47.5737,-180.1077 56.9835,-167.7244 64.4874,-157.8491"/>
<polygon fill="#00ff00" stroke="#00ff00" stroke-width=".596" points="67.478,-159.6983 70.7415,-149.6186 61.9046,-155.4631 67.478,-159.6983"/>
</g>
<!-- 2213&#45;&gt;5 -->
<g id="edge17" class="edge">
<title>2213&#45;&gt;5</title>
<path fill="none" stroke="#ff0000" stroke-width=".2848" d="M23.6089,-185.4113C21.8869,-148.044 18.6396,-77.5803 16.9069,-39.9803"/>
<polygon fill="#ff0000" stroke="#ff0000" stroke-width=".2848" points="20.3977,-39.698 16.4409,-29.8697 13.4051,-40.0203 20.3977,-39.698"/>
</g>
<!-- 2685&#45;&gt;3 -->
<g id="edge8" class="edge">
<title>2685&#45;&gt;3</title>
<path fill="none" stroke="#ff0000" stroke-width=".2979" d="M65.8711,-330.2143C57.4124,-319.8637 47.0948,-307.2385 38.9104,-297.2236"/>
<polygon fill="#ff0000" stroke="#ff0000" stroke-width=".2979" points="41.4057,-294.7459 32.3676,-289.2174 35.9855,-299.1754 41.4057,-294.7459"/>
</g>
</g>
</svg>
