<?xml version="1.0" encoding="UTF-8" standalone="no"?>
<!DOCTYPE svg PUBLIC "-//W3C//DTD SVG 1.1//EN"
 "http://www.w3.org/Graphics/SVG/1.1/DTD/svg11.dtd">
<!-- Generated by graphviz version 2.40.1 (20161225.0304)
 -->
<!-- Title: %3 Pages: 1 -->
<svg width="400pt" height="287pt"
 viewBox="0.00 0.00 400.03 286.81" xmlns="http://www.w3.org/2000/svg" xmlns:xlink="http://www.w3.org/1999/xlink">
<g id="graph0" class="graph" transform="scale(1 1) rotate(0) translate(4 282.811)">
<title>%3</title>
<polygon fill="#ffffff" stroke="transparent" points="-4,4 -4,-282.811 396.0291,-282.811 396.0291,4 -4,4"/>
<!-- 1 -->
<g id="node1" class="node">
<title>1</title>
<polygon fill="#add8e6" stroke="#000000" points="134.3492,-277.196 113.3492,-277.196 113.3492,-259.196 134.3492,-259.196 134.3492,-277.196"/>
<text text-anchor="middle" x="123.8492" y="-265.996" font-family="Times,serif" font-size="9.00" fill="#000000">1</text>
</g>
<!-- 1&#45;&gt;1 -->
<g id="edge14" class="edge">
<title>1&#45;&gt;1</title>
<path fill="none" stroke="#00ff00" stroke-width=".5042" d="M134.3725,-276.776C143.1635,-280.4427 152.3492,-277.5827 152.3492,-268.196 152.3492,-262.6226 149.1109,-259.3501 144.6396,-258.3786"/>
<polygon fill="#00ff00" stroke="#00ff00" stroke-width=".5042" points="143.8819,-254.9445 134.3725,-259.6159 144.7194,-261.8942 143.8819,-254.9445"/>
</g>
<!-- 3 -->
<g id="node3" class="node">
<title>3</title>
<polygon fill="#add8e6" stroke="#000000" points="134.3492,-223.196 113.3492,-223.196 113.3492,-205.196 134.3492,-205.196 134.3492,-223.196"/>
<text text-anchor="middle" x="123.8492" y="-211.996" font-family="Times,serif" font-size="9.00" fill="#000000">3</text>
</g>
<!-- 1&#45;&gt;3 -->
<g id="edge21" class="edge">
<title>1&#45;&gt;3</title>
<path fill="none" stroke="#ff0000" stroke-width=".5832" d="M118.5824,-258.7899C117.1869,-251.821 116.7762,-242.0823 117.3502,-233.483"/>
<polygon fill="#ff0000" stroke="#ff0000" stroke-width=".5832" points="120.8313,-233.8523 118.6041,-223.4943 113.8858,-232.9804 120.8313,-233.8523"/>
</g>
<!-- 0 -->
<g id="node5" class="node">
<title>0</title>
<ellipse fill="#add8e6" stroke="#000000" cx="14.8492" cy="-14.8492" rx="14.7" ry="14.7"/>
<text text-anchor="middle" x="14.8492" y="-12.6492" font-family="Times,serif" font-size="9.00" fill="#000000">0</text>
</g>
<!-- 1&#45;&gt;0 -->
<g id="edge13" class="edge">
<title>1&#45;&gt;0</title>
<path fill="none" stroke="#00ff00" stroke-width=".2296" d="M113.1055,-260.1321C102.4523,-251.7508 86.1325,-237.8315 74.8492,-223.196 41.7108,-180.212 31.6845,-167.678 17.8492,-115.196 11.2587,-90.1958 11.2987,-60.4755 12.4979,-39.8995"/>
<polygon fill="#00ff00" stroke="#00ff00" stroke-width=".2296" points="15.9998,-39.997 13.2251,-29.772 9.0178,-39.4957 15.9998,-39.997"/>
</g>
<!-- 5 -->
<g id="node6" class="node">
<title>5</title>
<ellipse fill="#add8e6" stroke="#000000" cx="289.8492" cy="-14.8492" rx="14.7" ry="14.7"/>
<text text-anchor="middle" x="289.8492" y="-12.6492" font-family="Times,serif" font-size="9.00" fill="#000000">5</text>
</g>
<!-- 1&#45;&gt;5 -->
<g id="edge16" class="edge">
<title>1&#45;&gt;5</title>
<path fill="none" stroke="#00ff00" stroke-width=".4155" d="M134.5939,-265.9924C176.5008,-256.7408 329.3359,-216.7087 383.8492,-115.196 394.2571,-95.8149 395.1118,-84.5957 383.8492,-65.6985 368.9247,-40.6568 336.9122,-27.1996 314.4085,-20.5397"/>
<polygon fill="#00ff00" stroke="#00ff00" stroke-width=".4155" points="315.105,-17.1023 304.5379,-17.868 313.2761,-23.8592 315.105,-17.1023"/>
</g>
<!-- 6 -->
<g id="node7" class="node">
<title>6</title>
<ellipse fill="#add8e6" stroke="#000000" cx="359.8492" cy="-90.4472" rx="14.7" ry="14.7"/>
<text text-anchor="middle" x="359.8492" y="-88.2472" font-family="Times,serif" font-size="9.00" fill="#000000">6</text>
</g>
<!-- 1&#45;&gt;6 -->
<g id="edge27" class="edge">
<title>1&#45;&gt;6</title>
<path fill="none" stroke="#00ff00" stroke-width=".1773" d="M134.6951,-261.396C159.2162,-245.8933 220.5475,-206.3904 268.8492,-169.196 294.832,-149.1881 323.1626,-124.1113 341.1943,-107.7028"/>
<polygon fill="#00ff00" stroke="#00ff00" stroke-width=".1773" points="343.6965,-110.1573 348.709,-100.8231 338.9697,-104.9942 343.6965,-110.1573"/>
</g>
<!-- 7 -->
<g id="node8" class="node">
<title>7</title>
<ellipse fill="#add8e6" stroke="#000000" cx="76.8492" cy="-14.8492" rx="14.7" ry="14.7"/>
<text text-anchor="middle" x="76.8492" y="-12.6492" font-family="Times,serif" font-size="9.00" fill="#000000">7</text>
</g>
<!-- 1&#45;&gt;7 -->
<g id="edge11" class="edge">
<title>1&#45;&gt;7</title>
<path fill="none" stroke="#00ff00" stroke-width=".2456" d="M116.2014,-258.9651C97.9936,-236.2856 52.5032,-175.2915 37.8492,-115.196 32.6377,-93.8233 30.7803,-86.5307 37.8492,-65.6985 42.0644,-53.2765 50.6697,-41.5105 58.7271,-32.4312"/>
<polygon fill="#00ff00" stroke="#00ff00" stroke-width=".2456" points="61.511,-34.5808 65.831,-24.9067 56.421,-29.7754 61.511,-34.5808"/>
</g>
<!-- 2 -->
<g id="node2" class="node">
<title>2</title>
<polygon fill="#add8e6" stroke="#000000" points="182.3492,-169.196 161.3492,-169.196 161.3492,-151.196 182.3492,-151.196 182.3492,-169.196"/>
<text text-anchor="middle" x="171.8492" y="-157.996" font-family="Times,serif" font-size="9.00" fill="#000000">2</text>
</g>
<!-- 2&#45;&gt;1 -->
<g id="edge5" class="edge">
<title>2&#45;&gt;1</title>
<path fill="none" stroke="#ff0000" stroke-width=".52" stroke-dasharray="1,5" d="M171.6872,-169.6052C171.1454,-182.3197 169.0043,-205.4378 160.8492,-223.196 156.0875,-233.565 148.3373,-243.534 141.1573,-251.442"/>
<polygon fill="#ff0000" stroke="#ff0000" stroke-width=".52" points="138.43,-249.229 134.0305,-258.8672 143.4802,-254.0762 138.43,-249.229"/>
</g>
<!-- 2&#45;&gt;2 -->
<g id="edge4" class="edge">
<title>2&#45;&gt;2</title>
<path fill="none" stroke="#00ff00" stroke-width=".3686" d="M182.3725,-168.776C191.1635,-172.4427 200.3492,-169.5827 200.3492,-160.196 200.3492,-154.6226 197.1109,-151.3501 192.6396,-150.3786"/>
<polygon fill="#00ff00" stroke="#00ff00" stroke-width=".3686" points="191.8819,-146.9445 182.3725,-151.6159 192.7194,-153.8942 191.8819,-146.9445"/>
</g>
<!-- 2&#45;&gt;3 -->
<g id="edge18" class="edge">
<title>2&#45;&gt;3</title>
<path fill="none" stroke="#00ff00" stroke-width=".3688" d="M168.8923,-169.4022C163.0356,-177.9602 151.849,-190.8176 141.9184,-200.5653"/>
<polygon fill="#00ff00" stroke="#00ff00" stroke-width=".3688" points="139.3084,-198.2119 134.3492,-207.5745 144.0646,-203.348 139.3084,-198.2119"/>
</g>
<!-- 4 -->
<g id="node4" class="node">
<title>4</title>
<polygon fill="#add8e6" stroke="#000000" points="68.3492,-99.4472 47.3492,-99.4472 47.3492,-81.4472 68.3492,-81.4472 68.3492,-99.4472"/>
<text text-anchor="middle" x="57.8492" y="-88.2472" font-family="Times,serif" font-size="9.00" fill="#000000">4</text>
</g>
<!-- 2&#45;&gt;4 -->
<g id="edge23" class="edge">
<title>2&#45;&gt;4</title>
<path fill="none" stroke="#00ff00" stroke-width=".2157" d="M161.2314,-155.8329C141.5253,-145.8895 100.4106,-121.1699 76.2319,-105.1345"/>
<polygon fill="#00ff00" stroke="#00ff00" stroke-width=".2157" points="78.1143,-102.1822 67.8744,-99.4629 74.1836,-107.9744 78.1143,-102.1822"/>
</g>
<!-- 2&#45;&gt;0 -->
<g id="edge1" class="edge">
<title>2&#45;&gt;0</title>
<path fill="none" stroke="#ff0000" stroke-width=".7931" stroke-dasharray="1,5" d="M163.2191,-151.0456C146.8563,-133.8264 109.9884,-95.6446 76.8492,-65.6985 63.2541,-53.4133 47.2488,-40.3187 34.9057,-30.4947"/>
<polygon fill="#ff0000" stroke="#ff0000" stroke-width=".7931" points="37.037,-27.718 27.0202,-24.2662 32.6981,-33.2111 37.037,-27.718"/>
</g>
<!-- 2&#45;&gt;5 -->
<g id="edge9" class="edge">
<title>2&#45;&gt;5</title>
<path fill="none" stroke="#ff0000" stroke-width=".7692" stroke-dasharray="1,5" d="M176.2628,-150.9666C184.9765,-133.286 205.6573,-93.894 229.8492,-65.6985 241.4398,-52.1897 256.7843,-39.2535 269.0541,-29.8095"/>
<polygon fill="#ff0000" stroke="#ff0000" stroke-width=".7692" points="271.4458,-32.3908 277.3473,-23.5917 267.2467,-26.79 271.4458,-32.3908"/>
</g>
<!-- 2&#45;&gt;6 -->
<g id="edge26" class="edge">
<title>2&#45;&gt;6</title>
<path fill="none" stroke="#ff0000" stroke-width=".1394" d="M182.351,-156.5918C204.028,-149.1201 255.263,-131.2941 297.8492,-115.196 310.762,-110.3148 325.0804,-104.6182 336.7012,-99.9217"/>
<polygon fill="#ff0000" stroke="#ff0000" stroke-width=".1394" points="338.1682,-103.1036 346.1159,-96.0975 335.5338,-96.6182 338.1682,-103.1036"/>
</g>
<!-- 2&#45;&gt;7 -->
<g id="edge19" class="edge">
<title>2&#45;&gt;7</title>
<path fill="none" stroke="#ff0000" stroke-width=".5446" d="M171.6973,-151.0184C170.9814,-133.0855 167.2725,-92.783 148.8492,-65.6985 136.6611,-47.7803 115.9258,-34.1262 99.8288,-25.5014"/>
<polygon fill="#ff0000" stroke="#ff0000" stroke-width=".5446" points="101.0258,-22.1844 90.5233,-20.7881 97.8627,-28.429 101.0258,-22.1844"/>
</g>
<!-- 1134 -->
<g id="node9" class="node">
<title>1134</title>
<ellipse fill="#ffffff" stroke="#000000" cx="263.8492" cy="-90.4472" rx="25" ry="25"/>
<text text-anchor="middle" x="263.8492" y="-88.2472" font-family="Times,serif" font-size="9.00" fill="#000000">1134</text>
</g>
<!-- 2&#45;&gt;1134 -->
<g id="edge3" class="edge">
<title>2&#45;&gt;1134</title>
<path fill="none" stroke="#00ff00" stroke-width=".4058" d="M182.4028,-152.1949C195.3012,-142.4162 217.6339,-125.4849 235.6551,-111.8223"/>
<polygon fill="#00ff00" stroke="#00ff00" stroke-width=".4058" points="238.241,-114.254 244.0953,-105.4235 234.012,-108.6758 238.241,-114.254"/>
</g>
<!-- 3&#45;&gt;1 -->
<g id="edge17" class="edge">
<title>3&#45;&gt;1</title>
<path fill="none" stroke="#ff0000" stroke-width=".2721" d="M129.0944,-223.4943C130.5001,-230.4344 130.921,-240.1646 130.3571,-248.7755"/>
<polygon fill="#ff0000" stroke="#ff0000" stroke-width=".2721" points="126.8725,-248.4353 129.1161,-258.7899 133.8194,-249.2962 126.8725,-248.4353"/>
</g>
<!-- 3&#45;&gt;2 -->
<g id="edge22" class="edge">
<title>3&#45;&gt;2</title>
<path fill="none" stroke="#00ff00" stroke-width=".287" d="M126.9434,-204.7899C132.7887,-196.3016 143.7477,-183.7041 153.5412,-174.0615"/>
<polygon fill="#00ff00" stroke="#00ff00" stroke-width=".287" points="156.0892,-176.4714 161.0256,-167.0968 151.3206,-171.347 156.0892,-176.4714"/>
</g>
<!-- 3&#45;&gt;3 -->
<g id="edge10" class="edge">
<title>3&#45;&gt;3</title>
<path fill="none" stroke="#00ff00" stroke-width=".1171" d="M134.3725,-222.776C143.1635,-226.4427 152.3492,-223.5827 152.3492,-214.196 152.3492,-208.6226 149.1109,-205.3501 144.6396,-204.3786"/>
<polygon fill="#00ff00" stroke="#00ff00" stroke-width=".1171" points="143.8819,-200.9445 134.3725,-205.6159 144.7194,-207.8942 143.8819,-200.9445"/>
</g>
<!-- 3&#45;&gt;4 -->
<g id="edge25" class="edge">
<title>3&#45;&gt;4</title>
<path fill="none" stroke="#ff0000" stroke-width=".3788" d="M118.8885,-204.8947C107.9896,-184.4595 81.7929,-135.3411 67.5185,-108.5768"/>
<polygon fill="#ff0000" stroke="#ff0000" stroke-width=".3788" points="70.4824,-106.6965 62.6882,-99.5201 64.3059,-109.9907 70.4824,-106.6965"/>
</g>
<!-- 3&#45;&gt;0 -->
<g id="edge8" class="edge">
<title>3&#45;&gt;0</title>
<path fill="none" stroke="#00ff00" stroke-width=".2822" d="M113.2672,-205.2842C94.9304,-189.235 57.3474,-153.5542 37.8492,-115.196 25.711,-91.3167 19.9022,-61.0037 17.172,-39.9749"/>
<polygon fill="#00ff00" stroke="#00ff00" stroke-width=".2822" points="20.6335,-39.4393 16.0077,-29.9077 13.6798,-40.2436 20.6335,-39.4393"/>
</g>
<!-- 3&#45;&gt;5 -->
<g id="edge12" class="edge">
<title>3&#45;&gt;5</title>
<path fill="none" stroke="#ff0000" stroke-width=".1376" d="M134.7686,-212.0265C167.0541,-204.9485 262.0359,-179.1908 297.8492,-115.196 311.0515,-91.6048 305.378,-59.8853 298.8196,-38.474"/>
<polygon fill="#ff0000" stroke="#ff0000" stroke-width=".1376" points="302.0992,-37.2452 295.6078,-28.8719 295.4608,-39.4657 302.0992,-37.2452"/>
</g>
<!-- 3&#45;&gt;7 -->
<g id="edge15" class="edge">
<title>3&#45;&gt;7</title>
<path fill="none" stroke="#00ff00" stroke-width=".1514" stroke-dasharray="1,5" d="M121.7076,-205.1124C114.8227,-175.9105 93.0961,-83.7592 82.6154,-39.306"/>
<polygon fill="#00ff00" stroke="#00ff00" stroke-width=".1514" points="85.9684,-38.275 80.2669,-29.3451 79.1552,-39.8814 85.9684,-38.275"/>
</g>
<!-- 4&#45;&gt;1 -->
<g id="edge24" class="edge">
<title>4&#45;&gt;1</title>
<path fill="none" stroke="#00ff00" stroke-width=".1701" d="M60.7117,-99.5576C67.5781,-121.2095 85.7618,-177.366 103.8492,-223.196 107.336,-232.0306 111.5629,-241.6719 115.231,-249.7561"/>
<polygon fill="#00ff00" stroke="#00ff00" stroke-width=".1701" points="112.1189,-251.3658 119.4806,-258.9852 118.4773,-248.438 112.1189,-251.3658"/>
</g>
<!-- 4&#45;&gt;2 -->
<g id="edge6" class="edge">
<title>4&#45;&gt;2</title>
<path fill="none" stroke="#ff0000" stroke-width=".4886" d="M68.654,-94.9048C88.3944,-104.8904 129.2083,-129.4302 153.3287,-145.4173"/>
<polygon fill="#ff0000" stroke="#ff0000" stroke-width=".4886" points="151.4359,-148.3625 161.677,-151.0775 155.3642,-142.5687 151.4359,-148.3625"/>
</g>
<!-- 4&#45;&gt;0 -->
<g id="edge20" class="edge">
<title>4&#45;&gt;0</title>
<path fill="none" stroke="#ff0000" stroke-width=".6435" d="M52.5766,-81.1774C46.3586,-70.2456 35.8112,-51.7023 27.4469,-36.9972"/>
<polygon fill="#ff0000" stroke="#ff0000" stroke-width=".6435" points="30.3196,-34.9684 22.3331,-28.0066 24.235,-38.4293 30.3196,-34.9684"/>
</g>
<!-- 4&#45;&gt;7 -->
<g id="edge7" class="edge">
<title>4&#45;&gt;7</title>
<path fill="none" stroke="#ff0000" stroke-width=".4162" d="M60.179,-81.1774C62.7944,-70.7711 67.1434,-53.4674 70.7435,-39.1431"/>
<polygon fill="#ff0000" stroke="#ff0000" stroke-width=".4162" points="74.154,-39.9321 73.1971,-29.3805 67.3651,-38.2258 74.154,-39.9321"/>
</g>
<!-- 1134&#45;&gt;5 -->
<g id="edge2" class="edge">
<title>1134&#45;&gt;5</title>
<path fill="none" stroke="#ff0000" stroke-width=".5604" d="M271.9333,-66.9419C275.0092,-57.9983 278.5158,-47.8025 281.6063,-38.8165"/>
<polygon fill="#ff0000" stroke="#ff0000" stroke-width=".5604" points="284.9311,-39.911 284.8737,-29.3163 278.3116,-37.6343 284.9311,-39.911"/>
</g>
</g>
</svg>
